<svg width="47" height="47" viewBox="0 0 47 47" fill="none" xmlns="http://www.w3.org/2000/svg">
<path d="M23.0536 5.66688C22.1166 5.72534 20.6972 5.96195 20 6.17351C19.9219 6.19856 19.749 6.25145 19.6096 6.29042C19.2666 6.39064 18.4161 6.69128 18.1595 6.8054C16.4612 7.54586 15.3709 8.20838 14.0602 9.29958C13.3993 9.85075 12.2978 10.9893 11.8544 11.5822C11.8098 11.6434 11.7679 11.6963 11.7596 11.7047C11.6731 11.7882 11.1767 12.5064 10.8532 13.013C10.4126 13.7006 9.79914 14.9532 9.51469 15.741C9.47565 15.8551 9.43104 15.9748 9.41709 16.0055C9.36132 16.1363 9.12707 16.8907 9.06851 17.1301C9.04899 17.2164 9.01832 17.3305 9.00437 17.3834C8.88725 17.8093 8.73945 18.5804 8.6781 19.0814C8.653 19.2735 8.61954 19.5491 8.60002 19.6938C8.5554 20.0557 8.5554 22.3161 8.60281 22.6724C8.69204 23.4017 8.7506 23.8109 8.7757 23.925C8.79243 23.9946 8.82869 24.1756 8.85936 24.3287C9.11592 25.6175 9.57883 26.9537 10.1951 28.1701C10.4099 28.5988 10.6999 29.1138 10.8811 29.395C11.4946 30.347 11.8795 30.8564 12.585 31.6386C13.0395 32.1425 13.2431 32.3234 13.4606 32.4264C13.6335 32.5099 13.6558 32.5127 14.0044 32.5127C14.353 32.5127 14.3753 32.5099 14.5482 32.4264C15.0725 32.1786 15.3625 31.6303 15.2733 31.0624C15.2203 30.7311 15.1227 30.5641 14.7518 30.18C14.3112 29.7179 13.9068 29.2335 13.5387 28.7241C12.4707 27.2487 11.662 25.367 11.3385 23.6188C11.2492 23.14 11.2353 23.0315 11.1879 22.561C11.1656 22.3244 11.1405 22.1017 11.1321 22.0683C11.1042 21.9542 11.1182 20.3898 11.1461 20.1448C11.16 20.0112 11.1935 19.7328 11.2158 19.5268C11.2799 18.9812 11.3942 18.3883 11.5532 17.8149C11.6675 17.4029 11.7902 17.0132 11.8321 16.9185C11.8544 16.8712 11.8711 16.8211 11.8711 16.8099C11.8711 16.693 12.4735 15.3541 12.73 14.9059C13.3714 13.7813 14.0518 12.885 14.9637 11.983C16.0318 10.9197 17.1221 10.1458 18.4718 9.48887C18.7061 9.37474 18.9041 9.28288 18.9124 9.28288C18.9208 9.28288 18.9794 9.25783 19.0463 9.22721C19.5232 9.01008 20.4852 8.69552 21.1294 8.54799C21.7541 8.40602 21.8154 8.39489 22.1333 8.35035C22.309 8.32808 22.5349 8.29467 22.6353 8.28075C23.3101 8.17498 24.9443 8.17498 25.6191 8.28075C25.7195 8.29746 25.9649 8.33364 26.1629 8.36427C28.2684 8.67326 30.4268 9.61692 32.1697 10.9865C32.8613 11.5293 33.6281 12.2809 34.197 12.9713C34.5121 13.3554 34.8022 13.7618 35.2009 14.377C35.3878 14.6693 36.0208 15.8579 36.0208 15.9192C36.0208 15.9275 36.0515 16.0027 36.0905 16.0862C36.1296 16.1697 36.1602 16.2449 36.1602 16.2532C36.1602 16.2643 36.1853 16.3228 36.2132 16.3896C36.2997 16.5761 36.4252 16.9296 36.5228 17.2442C36.5702 17.4057 36.6232 17.5671 36.6343 17.6061C36.6622 17.6785 36.7933 18.2074 36.8686 18.5386C36.9327 18.8198 37.0219 19.396 37.0721 19.8609C37.1335 20.4259 37.1335 21.9486 37.0721 22.5054C36.969 23.4184 36.8379 24.0642 36.5841 24.9272C36.4642 25.3336 36.216 26.0044 36.0766 26.3051C36.0487 26.3663 35.9985 26.4777 35.965 26.5556C35.7643 27.0177 35.3404 27.7776 35.0085 28.2787C34.5707 28.9384 34.211 29.3977 33.6644 29.9935C33.5724 30.0937 30.9761 32.6881 27.8919 35.7612L22.2867 41.3453L23.1791 42.2389C23.7619 42.8234 24.091 43.1324 24.1272 43.1324C24.1663 43.1324 26.057 41.259 29.8607 37.4621C32.984 34.3416 35.6388 31.6748 35.7615 31.5356C36.0403 31.2211 36.5646 30.5641 36.8044 30.2301C37.7275 28.9468 38.5334 27.3434 38.9768 25.9154C39.3644 24.6711 39.5652 23.6272 39.6767 22.2827C39.713 21.8317 39.6963 20.0334 39.6488 19.7078C39.6321 19.5853 39.5986 19.3347 39.5763 19.151C39.5178 18.6889 39.4397 18.2157 39.3811 17.968C39.2696 17.4864 39.1636 17.0549 39.1302 16.938C38.9015 16.1808 38.6617 15.5044 38.4637 15.059C38.4274 14.9811 38.3716 14.8502 38.3326 14.7667C38.0537 14.1181 37.4319 13.0241 36.955 12.3366C36.8239 12.1501 36.3192 11.4792 36.2578 11.4096C36.2439 11.3929 36.1798 11.3177 36.1184 11.2426C34.6711 9.48052 32.6187 7.92166 30.5272 6.99748C30.3208 6.90562 30.1256 6.81932 30.0949 6.8054C29.7017 6.62725 28.6894 6.29042 28.0313 6.12062C26.4502 5.71699 24.763 5.5611 23.0536 5.66688Z" fill="white"/>
<path d="M20.7196 14.2295C20.6833 14.3408 19.6041 17.0716 19.5678 17.1468C19.5539 17.1774 19.473 17.3834 19.3866 17.6061C19.3001 17.8288 19.2137 18.0515 19.1886 18.1016C19.1523 18.1879 19.0826 18.3605 18.8818 18.8866C18.8428 18.9868 18.7926 19.1065 18.7703 19.1566C18.748 19.2039 18.7313 19.2512 18.7313 19.2624C18.7313 19.2735 18.7117 19.3208 18.6894 19.3682C18.6699 19.4183 18.4803 19.8887 18.2711 20.4176C18.062 20.9465 17.7831 21.648 17.652 21.9765C17.521 22.3049 17.3202 22.8116 17.2059 23.1039C17.0915 23.3934 16.9856 23.6634 16.9688 23.7023C16.9549 23.7413 16.9019 23.8721 16.8517 23.9946L16.7625 24.2173L16.1713 24.2257L15.5801 24.2312L15.5857 25.0051L15.594 25.7762H18.6197H21.6454L21.6538 25.0023L21.6593 24.2312H21.2104C20.7949 24.2312 20.7614 24.2285 20.7753 24.1811C20.7837 24.1561 20.8785 23.8777 20.9901 23.5632C21.1016 23.2486 21.2132 22.9229 21.2438 22.8394C21.3582 22.4942 21.5729 21.8902 21.5952 21.8512C21.6203 21.8094 21.6482 21.854 22.0497 22.5193C22.2533 22.8561 22.5405 23.3293 22.7609 23.6884C22.8724 23.8721 23.0481 24.1589 23.1513 24.3287C24.1524 25.9822 24.0882 25.8764 24.1245 25.8653C24.1524 25.8569 24.2277 25.7344 24.6627 25.0246C24.7547 24.8715 24.9722 24.5152 25.1451 24.2312C25.318 23.9473 25.4937 23.6606 25.5356 23.591C25.5774 23.5214 25.7531 23.2347 25.926 22.9507C26.0989 22.6668 26.3247 22.2966 26.4251 22.124C26.5255 21.9514 26.6148 21.8122 26.6231 21.8094C26.6315 21.8094 26.7152 22.0321 26.81 22.3022C26.9745 22.7782 27.3259 23.7831 27.4318 24.0837L27.4848 24.2312H27.0386H26.5952V25.0107V25.7901H29.6209H32.6466V25.0107V24.2312H32.0666H31.4837L31.4503 24.1561C31.4308 24.1143 31.3722 23.9668 31.3192 23.8276C31.2662 23.6912 31.2105 23.552 31.1965 23.5214C31.1826 23.4908 31.0376 23.1261 30.8758 22.7141C30.7141 22.2994 30.5691 21.9375 30.5551 21.9069C30.5412 21.8762 30.4213 21.5756 30.2902 21.2388C30.1591 20.902 30.0392 20.6013 30.0253 20.5707C30.0113 20.5401 29.8914 20.2394 29.7604 19.9026C29.6293 19.5658 29.5094 19.2652 29.4954 19.2345C29.4815 19.2039 29.4006 18.9979 29.3114 18.7752C29.2249 18.5525 29.0018 17.9819 28.8122 17.5087C28.6226 17.0326 28.4162 16.5065 28.3521 16.3395C28.2852 16.1697 28.2238 16.0194 28.2127 16.0055C28.2015 15.9888 28.1764 15.9275 28.1569 15.8663C28.1374 15.805 28.1067 15.716 28.0872 15.6714C28.0649 15.6241 27.9422 15.3123 27.8083 14.9755C27.5573 14.3353 27.4932 14.1822 27.4737 14.1822C27.4569 14.1822 27.2227 14.5774 26.8881 15.1704C26.7235 15.4599 26.5674 15.7355 26.5395 15.7828C26.4028 16.0194 26.0319 16.6708 25.9399 16.8406C25.8813 16.9464 25.8116 17.0661 25.7837 17.105C25.7586 17.144 25.5802 17.4502 25.3905 17.787C24.8997 18.65 24.487 19.3737 24.3755 19.563C24.3225 19.6521 24.2807 19.73 24.2807 19.7356C24.2807 19.744 24.2444 19.8052 24.1998 19.8748L24.1189 20.0028L24.0213 19.8414C23.9683 19.7523 23.8986 19.6354 23.8679 19.5825C23.7062 19.2958 23.2349 18.4718 23.1931 18.3994C23.1122 18.2575 22.7079 17.5532 22.521 17.2219C22.4234 17.0493 22.323 16.874 22.2979 16.8322C22.2617 16.771 21.6398 15.6853 21.5004 15.4348C21.4781 15.3958 21.4279 15.3068 21.386 15.2372C21.3442 15.1676 21.1936 14.9031 21.0486 14.647C20.9064 14.3909 20.7781 14.1822 20.7642 14.1822C20.7474 14.1822 20.7307 14.2044 20.7196 14.2295Z" fill="white"/>
</svg>
