<svg width="28" height="28" viewBox="0 0 28 28" fill="none" xmlns="http://www.w3.org/2000/svg">
<path d="M14.0467 2.33337C7.67672 2.33337 2.48506 7.52504 2.48506 13.895C2.48506 15.9367 3.02172 17.92 4.02506 19.67L2.39172 25.6667L8.51672 24.0567C10.2084 24.9784 12.1101 25.4684 14.0467 25.4684C20.4167 25.4684 25.6084 20.2767 25.6084 13.9067C25.6084 10.815 24.4067 7.91004 22.2251 5.72837C20.0434 3.53504 17.1384 2.33337 14.0467 2.33337ZM14.0584 4.28171C16.6251 4.28171 19.0284 5.28504 20.8484 7.10504C22.6567 8.92504 23.6601 11.34 23.6601 13.9067C23.6601 19.2034 19.3434 23.5084 14.0467 23.5084C12.3201 23.5084 10.6284 23.0534 9.15839 22.1667L8.80839 21.9684L5.16839 22.925L6.13672 19.3784L5.90339 19.005C4.94672 17.5 4.43339 15.715 4.43339 13.895C4.44506 8.59837 8.75006 4.28171 14.0584 4.28171ZM9.95172 8.55171C9.76506 8.55171 9.45006 8.62171 9.18172 8.91337C8.92506 9.20504 8.16672 9.91671 8.16672 11.3284C8.16672 12.7517 9.20506 14.1167 9.33339 14.315C9.49672 14.5134 11.3867 17.43 14.2917 18.6667C14.9801 18.9817 15.5167 19.1567 15.9367 19.285C16.6251 19.5067 17.2551 19.4717 17.7567 19.4017C18.3167 19.32 19.4601 18.7017 19.7051 18.025C19.9501 17.3484 19.9501 16.7767 19.8801 16.6484C19.7984 16.5317 19.6117 16.4617 19.3201 16.3334C19.0284 16.17 17.6051 15.47 17.3484 15.3767C17.0801 15.2834 16.9167 15.2367 16.6951 15.5167C16.5084 15.8084 15.9484 16.4617 15.7851 16.6484C15.6101 16.8467 15.4467 16.87 15.1667 16.73C14.8634 16.5784 13.9301 16.275 12.8334 15.295C11.9701 14.525 11.3984 13.58 11.2234 13.2884C11.0834 13.0084 11.2117 12.8334 11.3517 12.705C11.4801 12.5767 11.6667 12.3667 11.7834 12.1917C11.9351 12.0284 11.9817 11.9 12.0751 11.7134C12.1684 11.515 12.1217 11.3517 12.0517 11.2117C11.9817 11.0834 11.3984 9.63671 11.1534 9.06504C10.9201 8.50504 10.6867 8.57504 10.5001 8.56337C10.3367 8.56337 10.1501 8.55171 9.95172 8.55171Z" fill="#289A00"/>
</svg>
