<svg width="25" height="25" viewBox="0 0 25 25" fill="none" xmlns="http://www.w3.org/2000/svg">
<g clip-path="url(#clip0_326_699)">
<path d="M20.0214 13.3093C20.1265 12.0893 20.0825 10.9235 19.8897 9.83802C19.5951 8.17614 18.97 6.87737 18.1297 6.18078C16.6425 4.9489 15.3623 5.38864 14.124 5.81386C13.4473 6.04624 12.7478 6.28647 11.9462 6.30252C11.1451 6.28647 10.4455 6.04624 9.76887 5.81386C8.53077 5.38864 7.25057 4.94909 5.76316 6.18097C4.92286 6.87737 4.2979 8.17614 4.00334 9.83802C3.65448 11.803 3.80296 14.1074 4.42127 16.3263C5.0719 18.6605 6.18829 20.779 7.65003 22.4525C7.9084 22.7481 8.26927 22.9115 8.64694 22.9115C8.72192 22.9115 8.79782 22.905 8.87354 22.8919C9.33284 22.8122 9.71568 22.4997 9.89796 22.0563C10.2066 21.3034 10.4553 20.6192 10.6372 20.0229C10.8184 19.4303 11.3444 19.032 11.9462 19.032C12.2404 19.032 12.5212 19.1268 12.7579 19.3063C12.9947 19.4853 13.1668 19.7332 13.2554 20.0227C13.4394 20.6247 13.6882 21.3091 13.9951 22.0565C14.1772 22.4997 14.5598 22.812 15.019 22.8919C15.4755 22.9712 15.9328 22.8072 16.2428 22.4525C16.4571 22.2071 16.6663 21.9491 16.8678 21.6818C17.584 22.1647 18.4278 22.4263 19.2899 22.4263C21.7354 22.4263 23.7251 20.3675 23.7251 17.8369C23.7251 15.5694 22.1341 13.6713 20.0214 13.3093ZM19.2901 21.4478C18.4812 21.4478 17.6933 21.1554 17.0715 20.6244C17.0713 20.6242 17.0713 20.6242 17.0711 20.6242C17.0711 20.624 17.0709 20.624 17.0709 20.624C16.9095 20.4864 16.7588 20.3323 16.6231 20.1659C16.4545 19.9595 16.1562 19.9335 15.9568 20.1078C15.7573 20.2823 15.7322 20.5909 15.9006 20.7973C15.9752 20.8887 16.0539 20.9764 16.1352 21.0614C15.9436 21.3165 15.7453 21.5631 15.5416 21.7962C15.4084 21.9485 15.2415 21.9384 15.1759 21.9269C15.1091 21.9153 14.9449 21.8673 14.8655 21.6739C14.5702 20.955 14.3319 20.3004 14.1572 19.7277C14.0071 19.2379 13.7162 18.819 13.3162 18.5164C12.9166 18.2135 12.4429 18.0536 11.9462 18.0536C10.9301 18.0536 10.0416 18.7265 9.73581 19.7281C9.56277 20.2951 9.32434 20.9498 9.02775 21.6737C8.94815 21.8673 8.78378 21.9153 8.71693 21.9269C8.65137 21.9382 8.48442 21.9485 8.35163 21.7964C5.65567 18.7098 4.25007 13.8651 4.93339 10.0146C5.18326 8.60499 5.70129 7.48605 6.35413 6.94483C6.87881 6.51025 7.34864 6.35393 7.82714 6.35393C8.33944 6.35393 8.86154 6.53319 9.47116 6.74245C10.1827 6.98688 10.9891 7.26379 11.9381 7.28099H11.9546C12.9038 7.26379 13.7103 6.98688 14.4219 6.74245C15.6009 6.33768 16.4528 6.04529 17.5387 6.94464C18.1919 7.48605 18.7098 8.60499 18.9597 10.0148C19.1386 11.0221 19.1776 12.1093 19.0766 13.2522C16.9252 13.3582 15.1423 15.0581 14.8856 17.2891C14.8546 17.5575 15.0398 17.8009 15.2991 17.8328C15.3181 17.8351 15.337 17.8363 15.3556 17.8363C15.5916 17.8363 15.7959 17.6536 15.8245 17.4049C16.033 15.5923 17.5228 14.2253 19.2899 14.2253C19.3468 14.2253 19.4077 14.227 19.4764 14.2308C19.4766 14.2308 19.4768 14.231 19.4769 14.231C21.3287 14.3319 22.7796 15.9158 22.7796 17.8369C22.7796 19.828 21.2142 21.4478 19.2901 21.4478Z" fill="#22A5E6"/>
<path d="M9.89245 11.58C9.92274 11.5737 9.95266 11.5644 9.98092 11.5521C10.0094 11.5399 10.0367 11.5248 10.0627 11.5072C10.0882 11.4891 10.1128 11.469 10.1346 11.4465C10.1564 11.4235 10.1761 11.3985 10.1933 11.3716C10.2103 11.3452 10.2249 11.3169 10.2367 11.2875C10.2485 11.2577 10.2576 11.2273 10.2637 11.1959C10.2698 11.1642 10.2731 11.1319 10.2731 11.1002C10.2731 11.0683 10.2698 11.036 10.2637 11.0046C10.2576 10.9735 10.2485 10.9425 10.2367 10.9133C10.2249 10.8838 10.2103 10.855 10.1933 10.8286C10.1761 10.8017 10.1564 10.7768 10.1346 10.7543C10.1128 10.7317 10.0882 10.7111 10.0627 10.6935C10.0367 10.6759 10.0094 10.6608 9.98092 10.6486C9.95266 10.6364 9.92274 10.627 9.89245 10.6207C9.83151 10.6079 9.76872 10.6079 9.70759 10.6207C9.67749 10.627 9.64757 10.6364 9.61931 10.6486C9.59087 10.6608 9.56354 10.6759 9.5375 10.6935C9.51201 10.7111 9.48782 10.7317 9.46566 10.7543C9.44387 10.7768 9.42447 10.8017 9.40693 10.8286C9.38994 10.855 9.37535 10.8838 9.36353 10.9133C9.35171 10.9425 9.34266 10.9735 9.33657 11.0046C9.33047 11.036 9.32715 11.0683 9.32715 11.1002C9.32715 11.1319 9.33047 11.1642 9.33657 11.1959C9.34266 11.2273 9.35171 11.2577 9.36353 11.2875C9.37535 11.3169 9.38994 11.3452 9.40693 11.3716C9.42447 11.3985 9.44387 11.4235 9.46566 11.4465C9.48745 11.469 9.51201 11.4891 9.5375 11.5072C9.56354 11.5248 9.59087 11.5399 9.61931 11.5521C9.64757 11.5644 9.67749 11.5737 9.70759 11.58C9.73843 11.5864 9.76909 11.5894 9.8003 11.5894C9.83114 11.5894 9.86235 11.5864 9.89245 11.58Z" fill="#22A5E6"/>
<path d="M14.5295 10.9133C14.5177 10.8838 14.5031 10.8554 14.4859 10.8286C14.4685 10.802 14.4491 10.7766 14.4274 10.7543C14.4052 10.7317 14.381 10.7111 14.355 10.6935C14.3295 10.6759 14.3021 10.6608 14.2737 10.6486C14.2449 10.6364 14.2155 10.627 14.1852 10.6207C14.1243 10.6079 14.0615 10.6079 14.0004 10.6207C13.9701 10.627 13.9404 10.6364 13.9121 10.6486C13.8837 10.6608 13.8558 10.6759 13.8303 10.6935C13.8042 10.7111 13.7801 10.7317 13.7584 10.7543C13.7367 10.7766 13.7167 10.802 13.6997 10.8286C13.6827 10.8554 13.6681 10.8838 13.6563 10.9133C13.6445 10.9425 13.6354 10.9733 13.6294 11.0046C13.6231 11.036 13.6198 11.0683 13.6198 11.1C13.6198 11.2292 13.6704 11.3549 13.7584 11.4459C13.7801 11.4684 13.8042 11.4891 13.8303 11.507C13.8558 11.5248 13.8837 11.5399 13.9121 11.5521C13.9404 11.5644 13.9701 11.5737 14.0004 11.5801C14.0307 11.5864 14.0619 11.5892 14.0925 11.5892C14.1234 11.5892 14.1546 11.5864 14.1852 11.5801C14.2155 11.5737 14.2449 11.5644 14.2737 11.5521C14.3021 11.5399 14.3295 11.5248 14.355 11.507C14.381 11.4891 14.4052 11.4684 14.4274 11.4459C14.5153 11.3549 14.5653 11.2292 14.5653 11.1C14.5653 11.0683 14.5625 11.036 14.5564 11.0046C14.5504 10.9733 14.5413 10.9425 14.5295 10.9133Z" fill="#22A5E6"/>
<path d="M13.3638 13.205C12.5162 13.8202 11.3769 13.8202 10.529 13.205C10.3151 13.05 10.0204 13.1036 9.87043 13.3249C9.72066 13.546 9.77237 13.8512 9.98623 14.0062C10.5724 14.4316 11.2594 14.6443 11.9464 14.6443C12.6334 14.6443 13.3204 14.4316 13.9068 14.0062C14.1207 13.8512 14.1724 13.546 14.0224 13.3249C13.8724 13.1036 13.5777 13.0499 13.3638 13.205Z" fill="#22A5E6"/>
<path d="M5.28776 5.7862C5.28943 5.78582 5.29127 5.78544 5.29293 5.78486C5.5694 5.70823 5.75981 5.44813 5.75648 5.1521C5.75297 4.85608 5.55629 4.60095 5.27835 4.53119L5.26708 4.52833C4.39576 4.31046 3.71724 3.61636 3.49655 2.7172L3.48362 2.66464C3.41326 2.3776 3.16413 2.17712 2.87787 2.17712C2.5918 2.17712 2.34267 2.3776 2.27231 2.66445L2.27083 2.66999C2.04663 3.58349 1.35906 4.29518 0.477583 4.5268L0.471119 4.52852C0.19373 4.60133 0 4.85914 0 5.15516C0 5.45138 0.19373 5.70918 0.472412 5.78238L0.47629 5.78333C1.35906 6.01534 2.04681 6.72703 2.27101 7.64033L2.28376 7.69289C2.35301 7.97439 2.59734 8.17104 2.87806 8.17104C3.15877 8.17104 3.4031 7.97439 3.47217 7.69289C3.70007 6.7641 4.39742 6.03311 5.28776 5.7862ZM2.88415 6.59249C2.56835 5.98438 2.08726 5.48463 1.50053 5.15535C2.07987 4.83028 2.55634 4.33875 2.87233 3.74058C3.1861 4.34964 3.66775 4.8471 4.25651 5.17045C3.6792 5.50145 3.20309 5.99508 2.88415 6.59249Z" fill="#22A5E6"/>
<path d="M23.762 7.63951C23.762 7.63951 23.7618 7.63951 23.7618 7.63932L23.7541 7.63741C23.1854 7.49522 22.7428 7.0423 22.5989 6.45578L22.5897 6.41833C22.5243 6.15154 22.2927 5.96521 22.0268 5.96521C21.7608 5.96521 21.5294 6.15154 21.4629 6.42215C21.3163 7.01974 20.8666 7.48509 20.2854 7.63798C20.0276 7.70563 19.8475 7.94528 19.8475 8.22048C19.8475 8.49567 20.0276 8.73513 20.2891 8.80374C20.8666 8.95548 21.3163 9.42102 21.4631 10.0186L21.4722 10.0557C21.5366 10.3185 21.7647 10.5021 22.0268 10.5021C22.2888 10.5021 22.5169 10.3187 22.5815 10.0557C22.7309 9.44644 23.1882 8.96714 23.7757 8.80431C24.0324 8.73322 24.2095 8.49147 24.2062 8.21627C24.203 7.94127 24.0204 7.7041 23.762 7.63951ZM22.0325 8.96561C21.8439 8.67035 21.6 8.41713 21.315 8.22067C21.5941 8.02803 21.834 7.78055 22.0212 7.49197C22.2094 7.78704 22.4536 8.03931 22.7391 8.23328C22.4606 8.4284 22.2205 8.67723 22.0325 8.96561Z" fill="#22A5E6"/>
<path d="M21.4187 15.9052C20.0083 16.1316 19.1451 17.654 18.7188 18.672C18.1295 18.1381 17.3285 17.9152 17.203 17.8829C16.9501 17.8174 16.6942 17.9764 16.6305 18.238C16.5666 18.4996 16.72 18.7655 16.9727 18.8318C17.2949 18.9166 18.2471 19.2857 18.3927 19.8504C18.4475 20.0635 18.6335 20.212 18.8466 20.2133H18.8496C19.0614 20.2133 19.2476 20.0671 19.3048 19.8557C19.5113 19.0936 20.3194 17.0719 21.5636 16.872C21.8216 16.8305 21.9984 16.5805 21.9583 16.3136C21.9184 16.0466 21.6765 15.8637 21.4187 15.9052Z" fill="#22A5E6"/>
<path d="M15.9412 18.8646C15.9293 18.8354 15.9148 18.8069 15.8978 18.7805C15.8802 18.7536 15.8608 18.7287 15.8387 18.7062C15.8169 18.6836 15.7927 18.6632 15.7666 18.645C15.7412 18.6275 15.7138 18.6122 15.6854 18.5999C15.6566 18.5877 15.6268 18.5785 15.5969 18.5722C15.536 18.5594 15.4732 18.5594 15.4121 18.5722C15.382 18.5785 15.352 18.5877 15.3238 18.5999C15.295 18.6122 15.2675 18.6275 15.242 18.645C15.2159 18.6632 15.1917 18.6836 15.1701 18.7062C15.1483 18.7287 15.1284 18.7536 15.1114 18.7805C15.0944 18.8069 15.0798 18.8354 15.068 18.8646C15.0562 18.8946 15.0471 18.9254 15.041 18.9562C15.0349 18.9881 15.0316 19.0204 15.0316 19.0521C15.0316 19.0838 15.0349 19.1161 15.041 19.1475C15.0471 19.1788 15.0562 19.2096 15.068 19.239C15.0798 19.2688 15.0944 19.2971 15.1114 19.3237C15.1284 19.3506 15.1483 19.3755 15.1701 19.398C15.1917 19.4206 15.2159 19.441 15.242 19.4586C15.2675 19.4762 15.295 19.4915 15.3238 19.5037C15.352 19.5159 15.382 19.5251 15.4121 19.5316C15.4423 19.5379 15.4736 19.5413 15.5044 19.5413C15.5356 19.5413 15.5663 19.5379 15.5969 19.5316C15.6268 19.5251 15.6566 19.5159 15.6854 19.5037C15.7138 19.4915 15.7412 19.4762 15.7666 19.4586C15.7927 19.441 15.8169 19.4206 15.8387 19.398C15.8608 19.3755 15.8802 19.3506 15.8978 19.3237C15.9148 19.2971 15.9293 19.2688 15.9412 19.239C15.953 19.2096 15.962 19.1788 15.9681 19.1475C15.9742 19.1161 15.9772 19.0838 15.9772 19.0521C15.9772 19.0204 15.9742 18.9881 15.9681 18.9562C15.962 18.9254 15.953 18.8946 15.9412 18.8646Z" fill="#22A5E6"/>
</g>
<defs>
<clipPath id="clip0_326_699">
<rect width="24.2063" height="25" fill="white"/>
</clipPath>
</defs>
</svg>
