<svg width="30" height="38" viewBox="0 0 30 38" fill="none" xmlns="http://www.w3.org/2000/svg">
<path d="M0.59375 0.625C0.5 0.65625 0.34375 0.796875 0.234375 0.921875L0.0625 1.14062V17.8438V34.5469L0.453125 34.5625L0.84375 34.5781L0.453125 34.6563C0.0625 34.7344 0.0624999 34.75 0.109375 35C0.28125 35.7656 0.796875 36.7188 1.23438 37.0625C1.84375 37.5156 2.875 37.5781 3.64062 37.2031C4.4375 36.8281 5.64062 35.5 6.8125 33.7656C7.07812 33.3594 7.35937 32.9844 7.4375 32.9688C7.625 32.8906 7.90625 33.1719 8.70312 34.2188C10.0625 36 10.7969 36.5313 11.8438 36.4531C12.875 36.375 13.5625 35.7656 14.6406 33.9375C15.9219 31.7813 16.2187 31.6875 16.8594 33.2969C17.5156 34.9531 18.1562 35.8281 18.9687 36.2031C20.0156 36.6875 20.7812 36.25 21.8438 34.5156C22.3594 33.6875 22.7969 33.1719 22.9844 33.1719C23.1563 33.1719 23.5625 33.5938 24.2031 34.4531C25.3438 35.9844 26.1094 36.5313 27.1875 36.6094C28.0469 36.6719 28.3438 36.5469 29.125 35.8281L29.7813 35.2031L29.4219 34.8906L29.0625 34.5781L29.5 34.5625H29.9219V17.8438V1.125L29.6875 0.859375L29.4531 0.59375L15.1094 0.5625C7.21875 0.5625 0.671875 0.578125 0.59375 0.625ZM28.2031 18.2969V34.3281L27.9375 34.5938C27.7344 34.7969 27.5937 34.8594 27.3906 34.8594C26.8594 34.8594 26.5 34.5469 25.6406 33.4219C25.2031 32.8281 24.7031 32.2188 24.5312 32.0625C23.4844 31.1563 22.1563 31.25 21.25 32.3125C21.0625 32.5156 20.6563 33.1094 20.3281 33.625C20 34.1406 19.7031 34.5781 19.6406 34.5938C19.4844 34.6563 19.0312 33.9063 18.6562 32.9531C18.4531 32.4531 18.1875 31.8906 18.0781 31.6875C17.6562 30.9531 16.7969 30.4219 16.0625 30.4219C15.0625 30.4219 14.2656 31.125 13.1719 32.9688C11.8438 35.2031 11.6875 35.2344 10.2969 33.4063C9 31.7031 8.40625 31.2813 7.39062 31.3438C6.90625 31.375 6.76562 31.4219 6.39062 31.6875C5.9375 32 5.79688 32.1719 4.75 33.6875C4.15625 34.5313 3.29688 35.4219 2.84375 35.6719C2.46875 35.875 2.32812 35.8125 2.04687 35.2969L1.84375 34.9375L1.8125 18.6094L1.79687 2.26563H15H28.2031V18.2969Z" fill="white"/>
<path d="M7.98438 7.59375V8.45312H15H22.0156V7.59375V6.73438H15H7.98438V7.59375Z" fill="white"/>
<path d="M7.98438 13.75V14.6562H15H22.0156V13.75V12.8438H15H7.98438V13.75Z" fill="white"/>
<path d="M7.98438 20.7969V21.6562H15H22.0156V20.7969V19.9375H15H7.98438V20.7969Z" fill="white"/>
</svg>
