<svg width="22" height="22" viewBox="0 0 22 22" fill="none" xmlns="http://www.w3.org/2000/svg">
<g clip-path="url(#clip0_326_730)">
<path d="M12.0641 11.3552C12.0641 10.5724 11.4275 9.93585 10.6448 9.93585C9.862 9.93585 9.22546 10.5724 9.22546 11.3552C9.22546 12.138 9.862 12.7746 10.6448 12.7746C11.4275 12.7746 12.0641 12.138 12.0641 11.3552ZM9.93512 11.3552C9.93512 10.9638 10.2534 10.6455 10.6448 10.6455C11.0362 10.6455 11.3544 10.9638 11.3544 11.3552C11.3544 11.7466 11.0362 12.0649 10.6448 12.0649C10.2534 12.0649 9.93512 11.7466 9.93512 11.3552Z" fill="#22A5E6"/>
<path d="M20.1602 2.94165L20.069 2.9264C19.8185 2.88447 19.591 2.76769 19.4115 2.58819C19.2321 2.4087 19.1153 2.18155 19.0734 1.93067L19.0581 1.83953C18.8807 0.773977 17.9678 0.000366211 16.8872 0.000366211C15.7796 0.000366211 14.8407 0.829247 14.7037 1.92824C14.6604 2.27269 14.5547 2.60205 14.3953 2.90301C11.3294 3.31641 9.02107 5.85313 8.8842 8.93804L8.58533 8.87844L8.51585 8.87133C6.60259 8.87133 4.82569 9.73261 3.63975 11.2346L0.334556 15.4209C0.118853 15.6945 0 16.0369 0 16.3853V16.54C0 17.3989 0.698739 18.0971 1.55705 18.0971C2.02778 18.0971 2.4682 17.8875 2.76516 17.5219L6.12216 13.3902C6.59272 12.8111 7.27794 12.4672 8.01809 12.4272C8.30656 13.1311 8.86895 13.6935 9.57289 13.982C9.53321 14.7224 9.18964 15.4071 8.60993 15.8784L4.47796 19.2355C4.11274 19.5321 3.9031 19.9729 3.9031 20.4433C3.9031 21.3021 4.60184 22.0004 5.46015 22.0004H5.61521C5.96328 22.0004 6.30598 21.8815 6.5799 21.6655L10.7657 18.3605C12.267 17.1749 13.1286 15.3979 13.1286 13.4842L13.0588 13.1159C16.1751 12.9807 18.7104 10.6533 19.1028 7.55663C19.3658 7.43535 19.6454 7.34975 19.9346 7.31354L20.0722 7.29656C21.1718 7.15882 22.0003 6.21992 22 5.11261C21.9993 4.03198 21.2257 3.11941 20.1602 2.94165ZM13.6835 3.77157L12.443 4.83504C12.2022 5.04122 12.0641 5.34149 12.0641 5.65821C12.0641 5.968 12.1961 6.24591 12.4051 6.4436C12.0272 7.15397 11.7987 7.93278 11.732 8.73359C11.3971 8.59429 11.0298 8.51649 10.6448 8.51649C10.2772 8.51649 9.92667 8.58892 9.60407 8.71661C9.81198 6.36373 11.4475 4.41038 13.6835 3.77157ZM15.1096 8.11349C14.9741 8.30217 14.9027 8.52498 14.9027 8.75785V8.82837C14.9027 8.92245 14.918 9.01185 14.94 9.09917C14.2853 9.39822 13.5739 9.56507 12.8533 9.57599C12.7251 9.41745 12.5804 9.27261 12.4214 9.14491C12.4345 8.30009 12.6528 7.47329 13.0555 6.73312C13.0867 6.73554 13.1165 6.7423 13.1482 6.7423H13.2897C13.4781 6.7423 13.6643 6.69292 13.8277 6.59936L15.9574 5.3822C16.0254 5.34356 16.1027 5.32295 16.1815 5.32295H16.2255C16.4743 5.32295 16.6769 5.52549 16.6769 5.77429C16.6769 5.86872 16.6478 5.95951 16.5932 6.03661L15.1096 8.11349ZM2.21421 17.0746C2.05273 17.2736 1.81277 17.3875 1.55705 17.3875C1.0896 17.3875 0.709655 17.0075 0.709655 16.54V16.3853C0.709655 16.1956 0.774625 16.0093 0.892093 15.8607L1.53175 15.0502L3.04115 16.0565L2.21421 17.0746ZM5.5712 12.9428L3.49075 15.5032L1.97286 14.4912L4.19694 11.6742C5.22902 10.3666 6.7684 9.60977 8.42992 9.58465C8.04079 10.0703 7.8062 10.6856 7.8062 11.3552C7.8062 11.4819 7.81763 11.6057 7.83357 11.7281C6.94962 11.8143 6.1381 12.2447 5.5712 12.9428ZM8.51585 11.3552C8.51585 10.181 9.47066 9.22617 10.6448 9.22617C11.819 9.22617 12.7738 10.181 12.7738 11.3552C12.7738 12.5294 11.819 13.4842 10.6448 13.4842C9.47066 13.4842 8.51585 12.5294 8.51585 11.3552ZM6.14 21.1082C5.99083 21.2261 5.80423 21.2907 5.61486 21.2907H5.4598C4.9927 21.2907 4.61275 20.9107 4.61275 20.4433C4.61275 20.1872 4.72658 19.9476 4.92565 19.7857L6.32729 18.6471L7.33754 20.1626L6.14 21.1082ZM10.3259 17.8033L7.89629 19.7216L6.8805 18.1976L9.05762 16.4286C9.75532 15.8617 10.186 15.0505 10.272 14.1662C10.3943 14.1827 10.5182 14.1939 10.6448 14.1939C11.3148 14.1939 11.9297 13.9593 12.4158 13.5702C12.3902 15.2317 11.6334 16.7712 10.3259 17.8033ZM13.2833 12.396C13.411 12.073 13.4834 11.7229 13.4834 11.3552C13.4834 10.9699 13.4056 10.6026 13.266 10.2676C13.9845 10.2073 14.6895 10.0164 15.3399 9.7042C15.5265 9.84714 15.7572 9.93585 16.0102 9.93585C16.3018 9.93585 16.5871 9.81769 16.7933 9.61151L18.276 8.12874C17.6977 10.4643 15.7117 12.1834 13.2833 12.396ZM19.9835 6.5926L19.8459 6.60958C19.0688 6.70678 18.3353 7.06526 17.7823 7.61918L16.2916 9.10974C16.2174 9.18355 16.1148 9.22617 16.0102 9.22617C15.7909 9.22617 15.6124 9.04771 15.6124 8.82837V8.75785C15.6124 8.67434 15.6379 8.59464 15.6866 8.52637L17.1708 6.4488C17.312 6.25059 17.3865 6.01738 17.3865 5.77429C17.3865 5.13427 16.8657 4.61327 16.2255 4.61327H16.1815C15.98 4.61327 15.7806 4.66611 15.6053 4.76626L13.4753 5.98324C13.4188 6.01564 13.3551 6.03262 13.2897 6.03262H13.1482C12.9417 6.03262 12.7738 5.86473 12.7738 5.65821C12.7738 5.54871 12.8213 5.4451 12.9044 5.37406L14.1985 4.26449C14.8686 3.69031 15.2979 2.89192 15.4073 2.01626C15.501 1.27176 16.1368 0.710044 16.8872 0.710044C17.6192 0.710044 18.2381 1.23416 18.3583 1.95631L18.3737 2.04745C18.4401 2.44491 18.6257 2.80494 18.9101 3.08996C19.1948 3.37497 19.5548 3.56019 19.9526 3.62655L20.0446 3.64179C20.7655 3.76204 21.2896 4.38058 21.2896 5.11261C21.29 5.863 20.7283 6.49922 19.9835 6.5926Z" fill="#22A5E6"/>
</g>
<defs>
<clipPath id="clip0_326_730">
<rect width="22" height="22" fill="white"/>
</clipPath>
</defs>
</svg>
