<svg width="22" height="22" viewBox="0 0 22 22" fill="none" xmlns="http://www.w3.org/2000/svg">
<path d="M6.33426 17.1782C6.87498 19.5903 8.79998 21.3125 11 21.3125C13.2 21.3125 15.125 19.5903 15.6657 17.1782C16.0911 17.1367 16.4931 16.964 16.8161 16.684C17.1391 16.404 17.3671 16.0306 17.4686 15.6154C17.5702 15.2002 17.5402 14.7637 17.3829 14.3663C17.2255 13.9689 16.9486 13.6302 16.5904 13.397C17.0476 11.2372 16.7709 9.57345 15.7472 8.33114L16.4233 7.5027C16.4677 7.44819 16.4943 7.3814 16.4995 7.31132C16.5047 7.24124 16.4884 7.17124 16.4526 7.11075C16.4168 7.05026 16.3634 7.00218 16.2994 6.973C16.2355 6.94382 16.1642 6.93493 16.095 6.94754L14.509 7.23939L13.938 5.85064C13.9125 5.78844 13.8694 5.73507 13.8139 5.69713C13.7585 5.65919 13.6931 5.63834 13.6259 5.63717C13.5586 5.63521 13.4922 5.65344 13.4354 5.68953C13.3785 5.72561 13.3338 5.77789 13.3069 5.83964L12.9013 6.73992C12.1417 6.3946 11.3124 6.23038 10.4786 6.26021C9.64474 6.29004 8.82925 6.51309 8.09632 6.91179C5.62889 8.14585 4.75095 10.2713 5.41232 13.3956C5.05339 13.6283 4.7757 13.9669 4.61772 14.3645C4.45974 14.762 4.42928 15.1988 4.53056 15.6145C4.63184 16.0301 4.85985 16.4039 5.18301 16.6842C5.50618 16.9645 5.9085 17.1374 6.33426 17.1789V17.1782ZM11 20.625C9.46823 20.625 8.09357 19.625 7.38201 18.1156C7.83336 17.544 8.98629 16.1789 10.7872 15.8469C10.9279 15.8215 11.072 15.8215 11.2128 15.8469C13.0137 16.1783 14.1666 17.5433 14.6179 18.1156C13.9064 19.625 12.5317 20.625 11 20.625ZM8.40364 7.52814C10.9299 6.26451 12.7947 7.45595 12.8724 7.50648C12.9139 7.5342 12.961 7.55255 13.0103 7.56023C13.0597 7.56792 13.1101 7.56477 13.1581 7.551C13.2061 7.53722 13.2505 7.51316 13.2882 7.48048C13.326 7.4478 13.3562 7.40729 13.3767 7.36176L13.6063 6.85164L13.9796 7.75948C14.0094 7.83237 14.0636 7.89271 14.1328 7.9303C14.202 7.96788 14.2821 7.9804 14.3594 7.96573L15.2999 7.79385L15.0311 8.12351C14.9785 8.18804 14.9512 8.26947 14.9541 8.35267C14.957 8.43586 14.99 8.51518 15.0469 8.57589C16.0438 9.63945 16.3388 11.131 15.9441 13.1213C15.7885 13.0833 15.6289 13.0635 15.4687 13.0625V12.0313C15.4687 11.952 15.4414 11.8752 15.3913 11.8138C15.3412 11.7524 15.2714 11.7102 15.1937 11.6944C13.6214 11.3795 12.3138 9.76939 12.3007 9.75392C12.2632 9.70702 12.214 9.67079 12.158 9.64884C12.1021 9.62689 12.0414 9.61999 11.9819 9.62882C11.9225 9.63765 11.8664 9.66192 11.8193 9.69918C11.7721 9.73645 11.7356 9.78543 11.7133 9.84123C11.2155 11.0866 8.03514 11.5968 6.84989 11.6885C6.76331 11.6949 6.68234 11.7337 6.62324 11.7973C6.56413 11.8609 6.53126 11.9445 6.53123 12.0313V13.0625C6.37059 13.0631 6.21058 13.0825 6.05445 13.1203C5.50789 10.383 6.26207 8.5972 8.40364 7.52814ZM6.53123 13.75C6.6222 13.7492 6.713 13.7581 6.80211 13.7765C6.85233 13.787 6.90426 13.7863 6.95418 13.7744C7.0041 13.7626 7.05078 13.7398 7.09086 13.7077C7.13073 13.6756 7.1629 13.6349 7.18503 13.5887C7.20715 13.5424 7.21867 13.4919 7.21873 13.4406V12.3444C8.22626 12.2382 11.0584 11.8288 12.0852 10.5456C12.8204 11.3502 13.7481 11.9545 14.7812 12.3018V13.4406C14.7812 13.4919 14.7927 13.5426 14.8149 13.5888C14.837 13.6351 14.8692 13.6759 14.9091 13.7081C14.9492 13.7401 14.9959 13.7629 15.0458 13.7748C15.0957 13.7867 15.1476 13.7874 15.1979 13.7768C15.2869 13.7583 15.3777 13.7493 15.4687 13.75C15.8334 13.75 16.1831 13.8949 16.441 14.1527C16.6989 14.4106 16.8437 14.7603 16.8437 15.125C16.8437 15.4897 16.6989 15.8394 16.441 16.0973C16.1831 16.3551 15.8334 16.5 15.4687 16.5C15.4543 16.5 15.4392 16.5 15.4244 16.5C15.3369 16.4886 15.2485 16.5115 15.1776 16.5639C15.1067 16.6163 15.0588 16.6942 15.0442 16.7812C15.0074 16.9826 14.9592 17.1817 14.8998 17.3776C13.9983 16.2582 12.7411 15.4808 11.3369 15.1742C11.114 15.1333 10.8856 15.1333 10.6628 15.1742C9.25868 15.4809 8.00163 16.2583 7.10014 17.3776C7.04073 17.1817 6.99252 16.9826 6.95576 16.7812C6.94058 16.7013 6.89789 16.6292 6.8351 16.5774C6.7723 16.5257 6.69338 16.4976 6.61201 16.4979C6.59998 16.4979 6.58795 16.4979 6.57557 16.4997C6.5632 16.5014 6.54532 16.4997 6.53089 16.4997C6.16621 16.4997 5.81648 16.3548 5.55861 16.0969C5.30075 15.8391 5.15589 15.4893 5.15589 15.1247C5.15589 14.76 5.30075 14.4103 5.55861 14.1524C5.81648 13.8945 6.16621 13.7497 6.53089 13.7497L6.53123 13.75Z" fill="#22A5E6"/>
<path d="M8.76562 14.4375C9.0504 14.4375 9.28125 14.2066 9.28125 13.9219C9.28125 13.6371 9.0504 13.4062 8.76562 13.4062C8.48085 13.4062 8.25 13.6371 8.25 13.9219C8.25 14.2066 8.48085 14.4375 8.76562 14.4375Z" fill="#22A5E6"/>
<path d="M13.2344 14.4375C13.5191 14.4375 13.75 14.2066 13.75 13.9219C13.75 13.6371 13.5191 13.4062 13.2344 13.4062C12.9496 13.4062 12.7188 13.6371 12.7188 13.9219C12.7188 14.2066 12.9496 14.4375 13.2344 14.4375Z" fill="#22A5E6"/>
<path d="M9.86011 17.2054L10.0774 17.8585C10.6765 17.6605 11.3235 17.6605 11.9226 17.8585L12.1399 17.2054C11.3998 16.9596 10.6002 16.9596 9.86011 17.2054Z" fill="#22A5E6"/>
<path d="M9.86011 18.5804L10.0774 19.2335C10.6765 19.0355 11.3235 19.0355 11.9226 19.2335L12.1399 18.5804C11.3998 18.3346 10.6002 18.3346 9.86011 18.5804Z" fill="#22A5E6"/>
<path d="M19.5938 6.28168C19.5896 5.80158 19.4538 5.33183 19.2012 4.92352L18.6113 5.27621C18.7995 5.57821 18.9015 5.9259 18.9063 6.28168C18.9063 7.15824 18.2356 8.0214 17.0181 8.7113L17.357 9.30943C18.7994 8.49062 19.5938 7.41674 19.5938 6.28168Z" fill="#22A5E6"/>
<path d="M11 1.81297C9.93829 1.80984 8.87888 1.91255 7.83752 2.11959L7.97502 2.79368C8.97114 2.59584 9.98446 2.49762 11 2.50047C12.4787 2.48877 13.9503 2.70477 15.3632 3.14087L15.5743 2.48775C14.0933 2.02921 12.5504 1.80161 11 1.81297Z" fill="#22A5E6"/>
<path d="M4.64303 9.30943L4.98197 8.7113C3.76441 8.02139 3.09375 7.15824 3.09375 6.28168C3.11198 5.74866 3.3266 5.24119 3.69634 4.85683L3.17866 4.40411C2.69753 4.9127 2.42229 5.58176 2.40625 6.28168C2.40625 7.41674 3.20066 8.49061 4.64303 9.30943Z" fill="#22A5E6"/>
<path d="M2.7517 3.37629C2.75795 3.44012 2.78194 3.50091 2.82093 3.55182C2.85993 3.60272 2.91239 3.64171 2.97239 3.66436L4.21986 4.13529L4.53954 5.4302C4.55491 5.49245 4.58737 5.54916 4.63327 5.59392C4.67917 5.63868 4.73667 5.66972 4.79928 5.68352C4.86189 5.69733 4.92711 5.69334 4.98757 5.67203C5.04804 5.65071 5.10134 5.61291 5.14145 5.56289L5.9747 4.52167L7.30467 4.61826C7.36861 4.62287 7.43256 4.60951 7.48931 4.57969C7.54605 4.54986 7.59333 4.50477 7.62579 4.44949C7.65826 4.39421 7.67462 4.33096 7.67303 4.26687C7.67144 4.20279 7.65196 4.14042 7.61679 4.08683L6.88426 2.97204L7.38717 1.73695C7.41138 1.67755 7.41849 1.61255 7.40769 1.54931C7.39689 1.48608 7.36861 1.42713 7.32604 1.37913C7.28348 1.33113 7.22834 1.296 7.16685 1.27771C7.10536 1.25942 7.03998 1.2587 6.9781 1.27564L5.69179 1.62798L4.67223 0.768607C4.62319 0.727312 4.56357 0.700555 4.50012 0.69136C4.43667 0.682164 4.37192 0.690896 4.31317 0.716569C4.25442 0.742242 4.20402 0.783833 4.16767 0.836644C4.13132 0.889454 4.11046 0.951378 4.10745 1.01542L4.04523 2.34745L2.91086 3.05111C2.8567 3.08514 2.81311 3.1336 2.785 3.19105C2.75688 3.2485 2.74535 3.31265 2.7517 3.37629ZM4.56154 2.83592C4.60875 2.80659 4.64814 2.76624 4.67634 2.71835C4.70454 2.67045 4.7207 2.61643 4.72345 2.56092L4.76161 1.74383L5.38654 2.26873C5.42925 2.30449 5.47996 2.32941 5.53436 2.34137C5.58876 2.35334 5.64524 2.35201 5.69901 2.33748L6.48792 2.12126L6.17854 2.87751C6.15752 2.92911 6.14935 2.98504 6.15474 3.04049C6.16013 3.09594 6.17891 3.14925 6.20948 3.19583L6.65876 3.87954L5.84373 3.82317C5.7881 3.81861 5.7322 3.8279 5.68103 3.85021C5.62986 3.87253 5.58502 3.90717 5.55051 3.95105L5.0397 4.58939L4.84376 3.79533C4.8306 3.74096 4.80437 3.69063 4.76735 3.6487C4.73033 3.60676 4.68364 3.5745 4.63132 3.5547L3.86648 3.26595L4.56154 2.83592Z" fill="#22A5E6"/>
<path d="M17.9729 3.3302L19.3273 3.09508L19.4448 3.77226L18.0905 4.00739L17.9729 3.3302Z" fill="#22A5E6"/>
<path d="M15.2639 3.80121L16.6183 3.56608L16.7359 4.24327L15.3815 4.4784L15.2639 3.80121Z" fill="#22A5E6"/>
<path d="M16.6647 1.80206L17.3419 1.68381L17.5784 3.03819L16.9012 3.15644L16.6647 1.80206Z" fill="#22A5E6"/>
<path d="M17.1373 4.51062L17.8145 4.39237L18.051 5.74675L17.3738 5.865L17.1373 4.51062Z" fill="#22A5E6"/>
</svg>
