<svg width="22" height="22" viewBox="0 0 22 22" fill="none" xmlns="http://www.w3.org/2000/svg">
<path d="M20.6763 11.4285C20.5452 10.772 19.9635 10.2953 19.294 10.2953H18.7289C19.4272 9.20626 19.8085 7.92938 19.8085 6.62996V6.28326C19.8085 4.99828 18.7634 3.95325 17.4788 3.95325H17.3238C16.8629 3.95325 16.4059 4.09559 16.0018 4.36478C15.7139 4.55645 15.4465 4.65792 15.2281 4.65792C15.0096 4.65792 14.7422 4.55645 14.4547 4.36478C14.0505 4.09559 13.5932 3.95325 13.1327 3.95325H12.9777C12.143 3.95325 11.4119 4.39578 11.0004 5.05712C10.5885 4.39578 9.85737 3.95325 9.02268 3.95325H8.86765C8.40679 3.95325 7.94981 4.09559 7.54568 4.36478C7.25782 4.55645 6.99039 4.65792 6.77194 4.65792C6.55349 4.65792 6.28607 4.55645 5.99856 4.36478C5.59443 4.09559 5.13709 3.95325 4.67659 3.95325H4.52156C3.23658 3.95325 2.19154 4.99828 2.19154 6.28291V6.62961C2.19154 7.92938 2.57277 9.20626 3.27111 10.2953H2.70596C2.03651 10.2953 1.4548 10.772 1.32373 11.4281L0 18.0468H22L20.6763 11.4285ZM17.7716 10.4278L16.8118 12.9375C16.7724 13.0429 16.6702 13.114 16.5571 13.114C16.4073 13.114 16.2851 12.9921 16.2851 12.842V9.943C16.2851 9.36023 15.8108 8.88598 15.2281 8.88598C14.6453 8.88598 14.171 9.36023 14.171 9.943V12.842C14.171 12.9921 14.0488 13.114 13.899 13.114C13.7863 13.114 13.6841 13.0429 13.6443 12.9375L12.7395 10.524L12.6849 10.4278C12.0035 9.57586 11.5697 8.5502 11.4175 7.47698H13.4664V8.18166H13.8187H14.171H16.2851H16.6374H16.9898V7.47698H19.0389C18.8867 8.55056 18.453 9.57621 17.7716 10.4278ZM14.171 7.47663V6.77195H16.2851V7.47663H14.171ZM11.3523 6.28326C11.3523 5.38691 12.0813 4.65792 12.9773 4.65792H13.1324C13.4537 4.65792 13.7757 4.7594 14.0636 4.95107C14.8824 5.49719 15.5733 5.49719 16.3922 4.95107C16.68 4.7594 17.0021 4.65792 17.3234 4.65792H17.4784C18.3748 4.65792 19.1038 5.38691 19.1038 6.28291V6.62961C19.1038 6.67717 19.0988 6.72439 19.0978 6.7716H16.9898V6.06692H16.6374H16.2851H14.171H13.8187H13.4664V6.7716H11.3583C11.3573 6.72439 11.3523 6.67753 11.3523 6.62996V6.28326ZM11 8.77394C11.1783 9.30808 11.4221 9.81933 11.7272 10.2953H10.2728C10.5779 9.81968 10.8217 9.30808 11 8.77394ZM2.89622 6.62996V6.28291C2.89622 5.38691 3.62521 4.65792 4.5212 4.65792H4.67623C4.99757 4.65792 5.3196 4.7594 5.60746 4.95107C6.4263 5.49719 7.11723 5.49719 7.93607 4.95107C8.22393 4.7594 8.54596 4.65792 8.8673 4.65792H9.02233C9.91867 4.65792 10.6477 5.38691 10.6477 6.28291V6.62961C10.6477 6.67717 10.6427 6.72439 10.6417 6.7716H8.53363V6.06692H8.18129H7.82896H5.71493H5.36259H5.01025V6.7716H2.90221C2.90115 6.72439 2.89622 6.67753 2.89622 6.62996ZM7.82896 6.77195V7.47663H5.71493V6.77195H7.82896ZM2.96105 7.47663H5.01025V8.18131H5.36259H5.71493H7.82896H8.18129H8.53363V7.47663H10.5828C10.4306 8.5502 9.99689 9.57586 9.31547 10.4275L8.3557 12.9372C8.31624 13.0429 8.21406 13.114 8.10096 13.114C7.95122 13.114 7.82896 12.9921 7.82896 12.842V9.943C7.82896 9.36023 7.35471 8.88598 6.77194 8.88598C6.18917 8.88598 5.71493 9.36023 5.71493 9.943V12.842C5.71493 12.9921 5.59267 13.114 5.44292 13.114C5.33017 13.114 5.22799 13.0429 5.18818 12.9375L4.28338 10.524L4.22876 10.4278C3.54699 9.57586 3.11326 8.5502 2.96105 7.47663ZM2.01467 11.5662C2.08056 11.2382 2.37124 11 2.70596 11H3.70906L4.52825 13.1852C4.6706 13.564 5.03808 13.8187 5.44292 13.8187C5.98129 13.8187 6.4196 13.3804 6.4196 12.842V9.943C6.4196 9.74886 6.57745 9.59066 6.77194 9.59066C6.96643 9.59066 7.12428 9.74886 7.12428 9.943V12.842C7.12428 13.3804 7.56259 13.8187 8.10096 13.8187C8.50545 13.8187 8.87293 13.564 9.01563 13.1849L9.83482 11H12.1655L12.9847 13.1852C13.1267 13.564 13.4942 13.8187 13.899 13.8187C14.4374 13.8187 14.8757 13.3804 14.8757 12.842V9.943C14.8757 9.74886 15.0336 9.59066 15.2281 9.59066C15.4226 9.59066 15.5804 9.74886 15.5804 9.943V12.842C15.5804 13.3804 16.0187 13.8187 16.5571 13.8187C16.9616 13.8187 17.3291 13.564 17.4718 13.1849L18.2909 11H19.294C19.6288 11 19.9194 11.2382 19.9853 11.5666L21.1403 17.3421H0.859705L2.01467 11.5662Z" fill="#22A5E6"/>
</svg>
