<svg width="17" height="22" viewBox="0 0 17 22" fill="none" xmlns="http://www.w3.org/2000/svg">
<path d="M10.9092 19.2733L10.7785 19.9573C10.6764 20.487 10.432 20.7791 10.058 20.9812C9.682 21.1837 9.13736 21.2854 8.45875 21.2854C7.78174 21.2854 7.22713 21.216 6.88264 20.9812C6.39462 20.6516 6.22237 20.2903 6.11831 19.8892L10.9092 19.2733ZM11.7876 17.5471C11.9894 17.522 12.1987 17.6547 12.2362 17.9232C12.2736 18.1937 12.0866 18.3975 11.8849 18.4226L5.11555 19.2943C4.9138 19.3193 4.70607 19.1887 4.66859 18.9186C4.63151 18.6481 4.81611 18.4425 5.01746 18.4154L11.7876 17.5471ZM11.414 15.9557L11.2769 16.8899L5.74472 17.6008L5.60198 16.6146L11.414 15.9557ZM12.8119 14.6331C12.8119 14.8833 12.66 15.0947 12.3713 15.1291L4.69012 15.999C4.39946 16.031 4.14787 15.8629 4.1088 15.6141C4.07132 15.3669 4.25831 15.1559 4.54658 15.1239L12.2326 14.2533C12.5874 14.2124 12.8119 14.4183 12.8119 14.6331ZM5.01388 12.7784H11.902L11.7649 13.5834L5.26267 14.3193L5.01388 12.7784ZM4.00234 10.6817C4.05816 10.6834 4.11438 10.6872 4.1702 10.6872H12.7469C12.8051 10.6872 12.8613 10.6834 12.9152 10.6817V11.2832C12.9152 11.7218 12.5204 12.0655 12.0097 12.0655H4.90981C4.39906 12.0655 4.00234 11.7218 4.00234 11.2832V10.6817ZM4.41581 0.713902C5.58882 0.713902 6.29334 1.02187 7.10512 1.42849C8.11666 1.93547 9.23345 2.38437 10.2904 2.48989C10.8371 2.56035 10.9571 1.85092 10.4112 1.78149C9.87936 1.71515 9.4643 1.61822 9.13656 1.50033C9.4332 1.4144 9.87578 1.26901 10.1497 1.17242C10.8391 0.93285 11.5117 0.714245 12.5021 0.714245C13.8852 0.714245 15.0128 1.55567 15.6172 2.81402C16.2217 4.07306 16.2512 5.71637 15.4039 7.17855C14.953 7.94297 14.7102 8.44102 14.4111 8.88614C14.1867 9.2192 14.004 9.50036 13.7756 9.67944C13.5475 9.85989 13.2812 9.97435 12.7477 9.97435H4.1706C3.63911 9.97435 3.37317 9.85989 3.14511 9.67944C2.91625 9.50036 2.73125 9.2192 2.50717 8.88614C2.20813 8.44102 1.96532 7.94297 1.51677 7.17855C0.66711 5.71637 0.698608 4.07271 1.30066 2.81402C1.90551 1.55532 3.03307 0.713902 4.41581 0.713902ZM4.41581 0C2.64193 0 1.23248 1.08855 0.536332 2.54042C-0.161415 3.99228 -0.188128 5.83976 0.513606 7.04278C1.21375 8.24751 1.45457 8.74521 1.79108 9.24498C2.00718 9.56738 2.2185 9.91935 2.58452 10.2077C2.74879 10.337 2.94615 10.4442 3.17421 10.5267V11.2839C3.17421 11.871 3.57532 12.3762 4.15026 12.6213L4.44092 14.4131C3.71208 14.4956 3.19096 15.0827 3.28825 15.711C3.38593 16.3355 4.05617 16.7796 4.77704 16.7081L4.92417 17.7073L4.89546 17.7104C4.19771 17.8005 3.75913 18.3947 3.84445 19.0035C3.92738 19.6101 4.53821 20.092 5.23596 20.002L5.3173 19.9913C5.3153 20.0236 5.3173 20.0559 5.32567 20.0862C5.48356 20.763 5.87549 21.2751 6.43887 21.5827C6.99986 21.8904 7.68924 22 8.45915 22C9.22747 22 9.9316 21.8941 10.501 21.5879C11.0679 21.2799 11.4619 20.7595 11.595 20.0738L11.7717 19.1623L12.0061 19.132C12.7038 19.0427 13.144 18.4484 13.0611 17.8417C12.9941 17.3705 12.6125 16.979 12.1181 16.8662L12.2653 15.8595L12.4794 15.8368C13.2106 15.7546 13.7317 15.1672 13.634 14.5372C13.5571 14.0501 13.1309 13.6779 12.6038 13.5703L12.7633 12.6237C13.341 12.3804 13.7461 11.8734 13.7461 11.2846V10.5274C13.9718 10.447 14.1699 10.3377 14.3334 10.2084C14.6994 9.92004 14.9127 9.56773 15.1292 9.24566C15.4633 8.7459 15.7038 8.24819 16.4063 7.04346C17.108 5.84045 17.0793 3.99297 16.3828 2.54111C15.685 1.08924 14.2772 0.000687386 12.5017 0.000687386C11.3662 0.000687386 10.5416 0.267069 9.83989 0.510765C9.17962 0.741743 8.62063 0.919101 7.92089 0.942474C7.80446 0.886448 7.63222 0.862044 7.5138 0.806362C6.6793 0.399056 5.76944 0 4.41581 0Z" fill="#22A5E6"/>
</svg>
