<svg width="40" height="40" viewBox="0 0 40 40" fill="none" xmlns="http://www.w3.org/2000/svg">
<g clip-path="url(#clip0_253_61)">
<path d="M14.1781 0.990234H25.8415C36.4949 0.990234 39.0098 3.52489 39.0098 14.1784V25.8417C39.0098 36.4952 36.4751 39.01 25.8217 39.01H14.1583C3.50484 39.01 0.98999 36.4754 0.98999 25.8219V14.1586C0.98999 3.52489 3.52464 0.990234 14.1781 0.990234Z" fill="#5181B8"/>
<mask id="mask0_253_61" style="mask-type:luminance" maskUnits="userSpaceOnUse" x="0" y="0" width="40" height="40">
<path d="M14.1781 0.990234H25.8415C36.4949 0.990234 39.0098 3.52489 39.0098 14.1784V25.8417C39.0098 36.4952 36.4751 39.01 25.8217 39.01H14.1583C3.50484 39.01 0.98999 36.4754 0.98999 25.8219V14.1586C0.98999 3.52489 3.52464 0.990234 14.1781 0.990234Z" fill="white"/>
</mask>
<g mask="url(#mask0_253_61)">
<path d="M0 0H40V40H0V0Z" fill="#5181B8"/>
</g>
<path fill-rule="evenodd" clip-rule="evenodd" d="M32.1189 14.0792C32.2971 13.4852 32.1189 13.0693 31.2872 13.0693H28.515C27.8021 13.0693 27.4853 13.4456 27.307 13.8614C27.307 13.8614 25.9011 17.307 23.9011 19.5248C23.2476 20.1782 22.9704 20.3763 22.614 20.3763C22.4358 20.3763 22.1783 20.1782 22.1783 19.5842V14.0792C22.1783 13.3664 21.9803 13.0693 21.3863 13.0693H17.0298C16.5942 13.0693 16.3169 13.406 16.3169 13.703C16.3169 14.3763 17.307 14.5347 17.4259 16.3961V20.4753C17.4259 21.3664 17.2674 21.5248 16.911 21.5248C15.9803 21.5248 13.6833 18.0792 12.3368 14.1188C12.0595 13.3862 11.8021 13.0693 11.0892 13.0693H8.31695C7.52487 13.0693 7.36646 13.4456 7.36646 13.8614C7.36646 14.5941 8.29715 18.2377 11.7427 23.0495C14.0397 26.3367 17.2674 28.1188 20.1981 28.1188C21.9605 28.1188 22.1783 27.7228 22.1783 27.0495V24.5545C22.1783 23.7624 22.3368 23.604 22.911 23.604C23.3269 23.604 24.0199 23.802 25.6635 25.3862C27.5447 27.2674 27.8615 28.1188 28.911 28.1188H31.6833C32.4754 28.1188 32.8714 27.7228 32.6338 26.9505C32.3764 26.1782 31.4853 25.0495 30.2971 23.703C29.6437 22.9307 28.6734 22.1188 28.3962 21.703C27.9803 21.1683 28.0991 20.9307 28.3962 20.4753C28.3962 20.4555 31.7823 15.703 32.1189 14.0792Z" fill="white"/>
</g>
<defs>
<clipPath id="clip0_253_61">
<rect width="40" height="40" fill="white"/>
</clipPath>
</defs>
</svg>
