<svg width="24" height="29" viewBox="0 0 24 29" fill="none" xmlns="http://www.w3.org/2000/svg">
<path d="M11.1689 0.0248299C10.4465 0.0698986 9.35214 0.252321 8.81464 0.415428C8.75444 0.434744 8.62115 0.475519 8.51365 0.505566C8.2492 0.582827 7.59346 0.814611 7.39566 0.902603C6.08632 1.47348 5.24568 1.98426 4.23519 2.82555C3.72565 3.25048 2.87641 4.12826 2.53456 4.58539C2.50016 4.6326 2.46791 4.67338 2.46146 4.67982C2.39481 4.7442 2.01212 5.29791 1.76272 5.68851C1.42302 6.2186 0.950027 7.18437 0.73073 7.79173C0.70063 7.87972 0.66623 7.972 0.65548 7.99561C0.612481 8.09648 0.431883 8.67809 0.386733 8.86265C0.371683 8.92918 0.348034 9.01718 0.337284 9.05795C0.246985 9.38631 0.133036 9.98079 0.0857364 10.3671C0.0663866 10.5152 0.0405869 10.7277 0.0255371 10.8393C-0.00886255 11.1183 -0.00886255 12.8609 0.0276871 13.1356C0.0964863 13.6979 0.141636 14.0134 0.160986 14.1014C0.173885 14.155 0.201835 14.2945 0.225485 14.4126C0.423283 15.4062 0.780179 16.4364 1.25532 17.3743C1.42087 17.7048 1.64447 18.1018 1.78422 18.3186C2.25721 19.0525 2.55391 19.4453 3.09785 20.0484C3.4483 20.4368 3.60525 20.5763 3.77295 20.6557C3.90625 20.7201 3.92345 20.7222 4.19219 20.7222C4.46094 20.7222 4.47814 20.7201 4.61144 20.6557C5.01563 20.4647 5.23923 20.0419 5.17043 19.6041C5.12958 19.3487 5.05433 19.2199 4.76839 18.9238C4.42869 18.5675 4.11694 18.1941 3.83315 17.8013C3.00971 16.6639 2.38621 15.2131 2.13681 13.8653C2.06802 13.4962 2.05727 13.4125 2.02072 13.0498C2.00352 12.8674 1.98417 12.6957 1.97772 12.6699C1.95622 12.5819 1.96697 11.3758 1.98847 11.1869C1.99922 11.0839 2.02502 10.8693 2.04222 10.7105C2.09167 10.2898 2.17981 9.83271 2.30236 9.3906C2.39051 9.07298 2.48511 8.77251 2.51736 8.69955C2.53456 8.66306 2.54746 8.62443 2.54746 8.61585C2.54746 8.52571 3.01186 7.49341 3.20965 7.14788C3.70415 6.28084 4.22874 5.58978 4.93178 4.89443C5.75523 4.0746 6.59587 3.47798 7.63646 2.97149C7.81705 2.88349 7.9697 2.81267 7.97615 2.81267C7.9826 2.81267 8.02775 2.79336 8.07935 2.76975C8.447 2.60235 9.18874 2.35983 9.68538 2.24609C10.167 2.13663 10.2143 2.12805 10.4594 2.09371C10.5948 2.07654 10.769 2.05079 10.8464 2.04006C11.3667 1.95851 12.6266 1.95851 13.1468 2.04006C13.2242 2.05294 13.4134 2.08084 13.5661 2.10444C15.1893 2.34266 16.8534 3.07021 18.1971 4.12611C18.7303 4.54461 19.3216 5.12407 19.7602 5.65631C20.0031 5.95248 20.2267 6.26582 20.5342 6.74012C20.6782 6.96546 21.1663 7.88186 21.1663 7.92908C21.1663 7.93552 21.1899 7.99347 21.22 8.05785C21.2501 8.12223 21.2738 8.18018 21.2738 8.18662C21.2738 8.1952 21.2931 8.24027 21.3146 8.29178C21.3813 8.43557 21.478 8.70813 21.5533 8.95065C21.5898 9.07512 21.6307 9.1996 21.6393 9.22964C21.6608 9.28544 21.7618 9.69321 21.8199 9.9486C21.8693 10.1654 21.9381 10.6096 21.9768 10.968C22.0241 11.4037 22.0241 12.5776 21.9768 13.0069C21.8973 13.7108 21.7962 14.2087 21.6006 14.874C21.5081 15.1873 21.3168 15.7046 21.2093 15.9363C21.1878 15.9836 21.1491 16.0694 21.1233 16.1295C20.9685 16.4858 20.6417 17.0717 20.3858 17.458C20.0483 17.9666 19.7709 18.3207 19.3495 18.78C19.2786 18.8572 17.277 20.8575 14.8991 23.2268L10.5776 27.532L11.2656 28.2209C11.715 28.6716 11.9687 28.9098 11.9966 28.9098C12.0267 28.9098 13.4844 27.4654 16.417 24.5381C18.8249 22.1323 20.8717 20.0763 20.9663 19.969C21.1813 19.7264 21.5855 19.2199 21.7704 18.9624C22.482 17.973 23.1034 16.7369 23.4452 15.6359C23.7441 14.6766 23.8989 13.8718 23.9849 12.8352C24.0128 12.4875 23.9999 11.1011 23.9634 10.85C23.9505 10.7556 23.9247 10.5624 23.9075 10.4208C23.8623 10.0645 23.8021 9.69965 23.757 9.50864C23.671 9.13736 23.5893 8.80471 23.5635 8.71457C23.3872 8.13082 23.2023 7.6093 23.0496 7.26592C23.0217 7.20583 22.9787 7.10496 22.9486 7.04058C22.7336 6.54053 22.2542 5.69709 21.8865 5.16699C21.7855 5.0232 21.3963 4.50598 21.349 4.45233C21.3383 4.43945 21.2888 4.3815 21.2415 4.32356C20.1257 2.96505 18.5433 1.76321 16.9308 1.05069C16.7717 0.979864 16.6212 0.913334 16.5976 0.902603C16.2944 0.765249 15.514 0.505566 15.0066 0.374651C13.7875 0.0634594 12.4868 -0.0567245 11.1689 0.0248299Z" fill="#8E479B"/>
<path d="M9.36927 6.62633C9.34132 6.71218 8.50928 8.81755 8.48133 8.87549C8.47058 8.8991 8.40823 9.05791 8.34158 9.22961C8.27493 9.4013 8.20828 9.57299 8.18893 9.61162C8.16098 9.67815 8.10723 9.81121 7.95243 10.2168C7.92233 10.2941 7.88363 10.3864 7.86643 10.425C7.84923 10.4615 7.83633 10.498 7.83633 10.5066C7.83633 10.5151 7.82128 10.5516 7.80408 10.5881C7.78903 10.6267 7.64284 10.9894 7.48159 11.3972C7.32034 11.805 7.10534 12.3458 7.00429 12.5991C6.90324 12.8523 6.74845 13.2429 6.6603 13.4682C6.57215 13.6914 6.49045 13.8996 6.47755 13.9297C6.4668 13.9597 6.42595 14.0606 6.38725 14.155L6.31845 14.3267L5.86266 14.3331L5.40686 14.3374L5.41116 14.9341L5.41761 15.5285H7.75034H10.0831L10.0895 14.9319L10.0938 14.3374H9.74766C9.42732 14.3374 9.40152 14.3353 9.41227 14.2988C9.41872 14.2795 9.49182 14.0649 9.57782 13.8224C9.66382 13.5798 9.74981 13.3287 9.77346 13.2644C9.86161 12.9982 10.0272 12.5325 10.0444 12.5025C10.0637 12.4703 10.0852 12.5046 10.3948 13.0176C10.5518 13.2772 10.7732 13.6421 10.9431 13.9189C11.0291 14.0606 11.1645 14.2816 11.244 14.4125C12.0159 15.6874 11.9664 15.6058 11.9944 15.5972C12.0159 15.5908 12.0739 15.4963 12.4093 14.9491C12.4803 14.831 12.648 14.5563 12.7813 14.3374C12.9146 14.1185 13.05 13.8975 13.0823 13.8438C13.1145 13.7902 13.25 13.5691 13.3833 13.3502C13.5166 13.1313 13.6907 12.8459 13.7681 12.7128C13.8455 12.5797 13.9143 12.4724 13.9208 12.4703C13.9272 12.4703 13.9917 12.642 14.0648 12.8502C14.1917 13.2171 14.4626 13.9919 14.5443 14.2237L14.5851 14.3374H14.2411H13.8993V14.9384V15.5393H16.232H18.5647V14.9384V14.3374H18.1175H17.6682L17.6424 14.2795C17.6273 14.2473 17.5822 14.1335 17.5413 14.0262C17.5005 13.9211 17.4575 13.8138 17.4467 13.7902C17.436 13.7666 17.3242 13.4854 17.1995 13.1678C17.0748 12.848 16.963 12.569 16.9522 12.5454C16.9415 12.5218 16.849 12.29 16.748 12.0303C16.6469 11.7706 16.5545 11.5389 16.5437 11.5152C16.533 11.4916 16.4405 11.2599 16.3395 11.0002C16.2384 10.7405 16.146 10.5087 16.1352 10.4851C16.1245 10.4615 16.0621 10.3027 15.9933 10.131C15.9267 9.95929 15.7547 9.51933 15.6085 9.15449C15.4623 8.7875 15.3032 8.38188 15.2538 8.25311C15.2022 8.12219 15.1549 8.0063 15.1463 7.99557C15.1377 7.9827 15.1183 7.93548 15.1033 7.88826C15.0882 7.84105 15.0646 7.77237 15.0495 7.73803C15.0323 7.70155 14.9377 7.46118 14.8345 7.2015C14.641 6.70788 14.5916 6.58985 14.5765 6.58985C14.5636 6.58985 14.383 6.8946 14.125 7.35173C13.9982 7.57493 13.8778 7.7874 13.8563 7.82388C13.7509 8.0063 13.465 8.5085 13.394 8.63942C13.3489 8.72097 13.2951 8.81325 13.2736 8.8433C13.2543 8.87335 13.1167 9.10942 12.9705 9.3691C12.5921 10.0344 12.2739 10.5924 12.1879 10.7383C12.147 10.807 12.1148 10.8671 12.1148 10.8714C12.1148 10.8778 12.0868 10.9251 12.0524 10.9787L11.9901 11.0774L11.9148 10.953C11.874 10.8843 11.8202 10.7941 11.7966 10.7534C11.6719 10.5323 11.3085 9.89706 11.2763 9.84126C11.2139 9.7318 10.9022 9.18883 10.7582 8.93344C10.6829 8.80038 10.6055 8.66517 10.5862 8.63298C10.5582 8.58576 10.0788 7.74877 9.97126 7.55561C9.95406 7.52557 9.91536 7.45689 9.88311 7.40324C9.85086 7.34958 9.73476 7.1457 9.62297 6.94825C9.51332 6.75081 9.41442 6.58985 9.40367 6.58985C9.39077 6.58985 9.37787 6.60702 9.36927 6.62633Z" fill="#8E479B"/>
</svg>
