<svg width="40" height="40" viewBox="0 0 40 40" fill="none" xmlns="http://www.w3.org/2000/svg">
<g clip-path="url(#clip0_239_432)">
<path d="M3.40702 8.11358L4.50135 7.87608C5.75969 7.60315 6.56206 6.35793 6.28979 5.09893L5.71376 2.44184C5.48151 1.37507 4.52037 0.601562 3.42867 0.601562C3.26334 0.601562 3.09735 0.619276 2.9353 0.654704L1.84098 0.891546C1.2328 1.02342 0.711878 1.38491 0.374001 1.91108C0.0354687 2.43659 -0.0786877 3.06117 0.0538387 3.66869L0.629869 6.32578C0.861462 7.39255 1.82129 8.16672 2.91365 8.16672C3.07898 8.16672 3.24497 8.149 3.40702 8.11358ZM1.91249 6.04826L1.33646 3.39052C1.27872 3.12547 1.32858 2.85189 1.47751 2.62095C1.62644 2.39001 1.8541 2.23124 2.11915 2.17416L3.21348 1.93667C3.28433 1.92158 3.35716 1.9137 3.42867 1.9137C3.9076 1.9137 4.32945 2.25289 4.43049 2.72002L5.00652 5.37645C5.12592 5.9282 4.77427 6.47405 4.22317 6.59412L3.12884 6.83161C2.58365 6.94971 2.02861 6.58559 1.91249 6.04826ZM39.3164 28.3527L28.9925 18.0498C28.2177 17.2769 26.7546 16.672 25.6609 16.672L23.4113 16.6727V14.4151C24.6991 14.4151 25.7476 13.473 25.7476 12.3157C25.7476 11.1584 24.6991 10.2163 23.4113 10.2163H16.8276C15.5397 10.2163 14.492 11.1584 14.492 12.3157C14.492 13.473 15.5397 14.4151 16.8276 14.4151V16.6746H16.4484C15.6979 16.6746 14.576 16.2095 14.0452 15.6794L7.53502 9.16985C6.65588 8.29006 5.11149 8.29137 4.23236 9.16985L3.44048 9.96173C3.00091 10.4013 2.75882 10.9878 2.75882 11.6131C2.75882 12.2383 3.00091 12.8248 3.44113 13.2644L11.272 21.0848C12.0468 21.8583 13.5099 22.4638 14.6035 22.4638H19.4637V27.7996H16.7607C16.3979 27.7996 16.1046 28.0936 16.1046 28.4557V31.1587H14.6613C13.3734 31.1587 12.3257 32.2065 12.3257 33.4943V37.0634C12.3257 38.3512 13.3734 39.399 14.6613 39.399H28.0976C29.3855 39.399 30.4339 38.3512 30.4339 37.0634V33.4943C30.4339 32.2065 29.3855 31.1587 28.0976 31.1587H26.6549V28.4557C26.6549 28.0936 26.3616 27.7996 25.9988 27.7996H23.2958V22.4638H23.8318C24.5817 22.4638 25.7043 22.929 26.235 23.4591L35.2238 32.4479C35.6634 32.8875 36.2493 33.1302 36.8758 33.1302C37.5011 33.1302 38.0876 32.8881 38.5272 32.4479L39.319 31.656C39.7593 31.2158 40.0007 30.6299 40.0007 30.0047C40 29.3788 39.7573 28.7923 39.3164 28.3527ZM15.8041 12.3157C15.8041 11.8893 16.2726 11.5284 16.8276 11.5284H23.4113C23.9663 11.5284 24.4354 11.8893 24.4354 12.3157C24.4354 12.7422 23.9663 13.103 23.4113 13.103H16.8276C16.2726 13.103 15.8041 12.7422 15.8041 12.3157ZM18.1398 14.4151H22.0991V16.6733L18.1398 16.6746V14.4151ZM29.1211 33.4937V37.0627C29.1211 37.6269 28.6618 38.0862 28.0969 38.0862H14.6606C14.0964 38.0862 13.6371 37.6269 13.6371 37.0627V33.4937C13.6371 32.9295 14.0957 32.4702 14.6606 32.4702H16.76H25.9982H28.0969C28.6618 32.4702 29.1211 32.9295 29.1211 33.4937ZM25.3421 31.1581H17.4161V29.1111H20.1191H22.6391H25.3421V31.1581ZM21.983 27.799H20.7752V22.4632H21.983V27.799ZM23.8318 21.151H22.6397H20.1198H14.6035C13.8536 21.151 12.7304 20.6859 12.1997 20.1558L4.36882 12.3354C4.17659 12.1438 4.07096 11.8873 4.07096 11.6124C4.07096 11.3382 4.17659 11.081 4.36816 10.8888L5.16004 10.0969C5.35227 9.90531 5.60945 9.79902 5.88434 9.79902C6.15858 9.79902 6.41576 9.90465 6.60799 10.0969L13.1182 16.6064C13.8917 17.3799 15.3547 17.9861 16.4491 17.9861H16.8283V19.4616C16.8283 19.8238 17.1215 20.1177 17.4843 20.1177C17.8471 20.1177 18.1404 19.8238 18.1404 19.4616V17.9855L22.0998 17.9842V19.461C22.0998 19.8231 22.3931 20.1171 22.7559 20.1171C23.1187 20.1171 23.4119 19.8231 23.4119 19.461V17.9835L25.6616 17.9829C26.4122 17.9829 27.5353 18.4474 28.0668 18.9775L36.5504 27.4434L34.4011 29.7665L27.1627 22.5301C26.3885 21.7572 24.9255 21.151 23.8318 21.151ZM38.3907 30.7277L37.5988 31.5196C37.2144 31.904 36.536 31.9027 36.1515 31.5196L35.3288 30.6969L37.4788 28.3731L38.39 29.2824C38.5823 29.4739 38.6879 29.7305 38.6879 30.0054C38.6879 30.2789 38.5823 30.5355 38.3907 30.7277Z" fill="white"/>
</g>
<defs>
<clipPath id="clip0_239_432">
<rect width="40" height="40" fill="white"/>
</clipPath>
</defs>
</svg>
