<svg width="24" height="25" viewBox="0 0 24 25" fill="none" xmlns="http://www.w3.org/2000/svg">
<g clip-path="url(#clip0_217_116)">
<path d="M15.0501 5.5C16.0268 5.69057 16.9244 6.16826 17.6281 6.87194C18.3318 7.57561 18.8095 8.47326 19.0001 9.45M15.0501 1.5C17.0793 1.72544 18.9716 2.63417 20.4163 4.07701C21.8609 5.51984 22.7721 7.41101 23.0001 9.44M22.0001 17.42V20.42C22.0012 20.6985 21.9441 20.9742 21.8326 21.2293C21.721 21.4845 21.5574 21.7136 21.3521 21.9019C21.1469 22.0901 20.9046 22.2335 20.6408 22.3227C20.377 22.4119 20.0974 22.4451 19.8201 22.42C16.7429 22.0856 13.7871 21.0341 11.1901 19.35C8.77388 17.8147 6.72539 15.7662 5.19006 13.35C3.50003 10.7412 2.4483 7.77099 2.12006 4.68C2.09507 4.40347 2.12793 4.12476 2.21656 3.86162C2.30518 3.59849 2.44763 3.35669 2.63482 3.15162C2.82202 2.94655 3.04986 2.78271 3.30385 2.67052C3.55783 2.55833 3.8324 2.50026 4.11006 2.5H7.11006C7.59536 2.49522 8.06585 2.66708 8.43382 2.98353C8.80179 3.29999 9.04213 3.73945 9.11005 4.22C9.23668 5.18007 9.47151 6.12273 9.81006 7.03C9.9446 7.38792 9.97372 7.77691 9.89396 8.15088C9.81421 8.52485 9.62892 8.86811 9.36005 9.14L8.09006 10.41C9.51361 12.9135 11.5865 14.9864 14.0901 16.41L15.3601 15.14C15.6319 14.8711 15.9752 14.6858 16.3492 14.6061C16.7231 14.5263 17.1121 14.5555 17.4701 14.69C18.3773 15.0286 19.32 15.2634 20.2801 15.39C20.7658 15.4585 21.2095 15.7032 21.5266 16.0775C21.8437 16.4518 22.0122 16.9296 22.0001 17.42Z" stroke="#22A5E6" stroke-width="2" stroke-linecap="round" stroke-linejoin="round"/>
</g>
<defs>
<clipPath id="clip0_217_116">
<rect width="24" height="24" fill="white" transform="translate(0 0.5)"/>
</clipPath>
</defs>
</svg>
