<svg width="33" height="32" viewBox="0 0 33 32" fill="none" xmlns="http://www.w3.org/2000/svg">
<path d="M28.6555 0.204551C27.5046 0.313418 24.7674 0.562258 22.5589 0.764441C20.366 0.966623 18.5153 1.15325 18.4375 1.19991C18.3753 1.23102 14.2228 5.35243 9.19931 10.3448C2.88499 16.628 0.0544338 19.4897 0.0233288 19.6452C-0.00777625 19.7696 -0.00777625 19.9718 0.0233288 20.0962C0.0855388 20.3606 11.5633 31.8384 11.8899 31.9628C11.9988 32.0094 12.2009 32.0094 12.3409 31.9783C12.5431 31.9317 14.6582 29.8787 21.6724 22.8801C26.6648 17.9033 30.8017 13.7508 30.8484 13.6419C30.9106 13.5331 31.1906 11.1691 31.5638 7.43647C31.906 4.12378 32.2015 1.29323 32.217 1.15325C32.2792 0.795546 32.1393 0.360076 31.8749 0.157893C31.626 -0.0598419 31.3927 -0.0598421 28.6555 0.204551ZM30.3818 1.96198C30.3818 2.24193 29.3087 12.6777 29.2776 12.8021C29.2465 12.8643 25.3895 16.7524 20.6926 21.4182L12.1387 29.9098L7.11527 24.8864L2.09181 19.8629L4.64242 17.3123C6.04215 15.9126 9.91473 12.0711 13.2274 8.77398L19.2618 2.78627L24.5963 2.30414C27.5357 2.03975 30.0241 1.80646 30.1641 1.80646C30.3352 1.79091 30.3818 1.83756 30.3818 1.96198Z" fill="#FF9C81"/>
<path d="M21.0659 5.71016C18.3442 6.36336 16.96 9.56718 18.282 12.18C19.4795 14.544 23.1188 15.0106 25.1562 13.0509C25.996 12.2422 26.4159 11.2935 26.4937 10.0493C26.6181 7.90306 25.4361 6.20784 23.4454 5.6946C22.8389 5.55463 21.7191 5.55463 21.0659 5.71016ZM23.2588 7.35872C23.7876 7.59201 24.4252 8.21411 24.6585 8.72734C24.9229 9.31834 24.9851 9.78491 24.8296 10.3604C24.4408 11.8378 22.8855 12.9265 21.5636 12.6466C20.7082 12.4755 19.7906 11.6668 19.4951 10.8425C19.324 10.3448 19.3395 9.6916 19.5573 9.13171C19.8528 8.33853 20.8792 7.43648 21.7191 7.2032C22.1079 7.09433 22.8544 7.18764 23.2588 7.35872Z" fill="#FF9C81"/>
</svg>
