<svg width="22" height="22" viewBox="0 0 22 22" fill="none" xmlns="http://www.w3.org/2000/svg">
<g clip-path="url(#clip0_326_752)">
<path d="M19.7501 14.1126C19.8713 14.0999 19.9882 14.0608 20.0927 13.9981C20.1972 13.9355 20.2867 13.8508 20.3551 13.75C20.7384 13.1948 21.859 11.22 21.9845 9.472C22.1323 7.39919 21.2196 4.98778 20.4874 3.04904C20.1179 2.07622 19.7656 1.14982 19.7449 0.687473C19.9495 0.687473 20.2228 0.73216 20.3671 0.546535C20.3944 0.50916 20.4139 0.466657 20.4244 0.421574C20.4349 0.376492 20.4361 0.329758 20.4281 0.284176C20.4201 0.238593 20.4029 0.195101 20.3777 0.156306C20.3524 0.117512 20.3196 0.0842141 20.2812 0.0584101C20.099 -0.0636212 19.7656 0.00341008 19.5679 0.0154413C19.3376 0.0286757 19.1081 0.0539184 18.8804 0.0910663C18.277 0.173361 17.7014 0.395869 17.1995 0.740754C17.042 0.85937 16.8943 0.990414 16.7578 1.13263C15.8984 1.992 15.5185 3.1195 15.4635 4.32263C15.4395 4.84857 15.4532 5.37279 15.4017 5.897C15.3512 6.45401 15.2423 7.00417 15.0768 7.53841C14.8904 8.15718 14.5799 8.73147 14.1642 9.22622C13.6616 9.75308 13.1109 10.2318 12.5193 10.6562C11.5053 11.4434 10.5479 12.1859 10.3073 13.145C10.0168 14.3086 10.5806 15.9053 10.9535 16.9623C11.0498 17.2339 11.1254 17.4676 11.1667 17.6068C11.1775 17.6508 11.1969 17.6922 11.2238 17.7286C11.2507 17.765 11.2845 17.7958 11.3234 17.8191C11.3622 17.8424 11.4052 17.8578 11.45 17.8645C11.4948 17.8711 11.5404 17.8688 11.5843 17.8578C11.6724 17.8355 11.7481 17.7792 11.7948 17.7012C11.8415 17.6233 11.8554 17.53 11.8335 17.4418C11.8146 17.3611 11.7854 17.27 11.7493 17.16C12.0724 16.9881 13.0728 16.7801 14.0198 16.8781C14.7382 16.952 15.3948 16.4484 15.5667 15.675L15.9104 14.5784C15.9168 14.5588 15.9214 14.5387 15.9242 14.5183C15.9276 14.4854 15.9417 14.4547 15.9644 14.4307C15.9871 14.4068 16.0171 14.391 16.0496 14.3859L16.6598 14.3395V15.6406H16.4879C16.4162 15.6386 16.3457 15.659 16.2862 15.6991C16.2267 15.7392 16.1813 15.7968 16.1562 15.864L15.6406 17.239C15.6406 17.239 15.6406 17.239 15.6406 17.2528C15.6358 17.268 15.6317 17.2835 15.6285 17.2992C15.6277 17.3095 15.6277 17.3198 15.6285 17.3301C15.6268 17.3461 15.6268 17.3623 15.6285 17.3783C15.6277 17.3885 15.6277 17.3989 15.6285 17.4092V17.4195L16.1442 20.3414C16.1584 20.4218 16.2009 20.4945 16.2639 20.5464C16.3268 20.5984 16.4063 20.6262 16.4879 20.625H17.0035V21.6562C17.0035 22.0997 17.691 22.0997 17.691 21.6562V20.625H18.3785V21.6562C18.3785 22.0997 19.066 22.0997 19.066 21.6562V20.625H19.5817C19.6633 20.6262 19.7427 20.5984 19.8057 20.5464C19.8687 20.4945 19.9111 20.4218 19.9254 20.3414L20.441 17.4195C20.4402 17.4161 20.4402 17.4126 20.441 17.4092C20.4402 17.3989 20.4402 17.3885 20.441 17.3783C20.4419 17.3622 20.4419 17.3462 20.441 17.3301V17.2992C20.4378 17.2835 20.4338 17.268 20.429 17.2528C20.4298 17.2482 20.4298 17.2436 20.429 17.239L19.9134 15.864C19.8889 15.7985 19.845 15.742 19.7876 15.7021C19.7302 15.6622 19.6619 15.6407 19.592 15.6406H19.4201V14.1384L19.7501 14.1126ZM15.9843 13.7122C15.8009 13.7314 15.6288 13.8102 15.4944 13.9366C15.36 14.0629 15.2707 14.2298 15.2401 14.4117L14.9067 15.4945C14.9059 15.5031 14.9059 15.5117 14.9067 15.5203C14.8224 15.8915 14.5148 16.2456 14.0954 16.2078C13.3357 16.1304 12.1842 16.2267 11.5293 16.5258C11.2045 15.5959 10.7576 14.214 10.9793 13.3237C11.1615 12.5967 12.0278 11.9247 12.9456 11.2148C13.5723 10.7609 14.1552 10.2494 14.6867 9.68685C15.4515 8.812 15.8399 7.67075 16.0187 6.5381C16.0979 6.01867 16.1404 5.49429 16.1459 4.96888C16.1316 4.40265 16.1841 3.83672 16.3023 3.28278C16.4621 2.65443 16.7894 2.08121 17.2493 1.62419C17.5054 1.3681 17.9368 0.936691 19.066 0.764816C19.1073 1.3406 19.4287 2.19138 19.8498 3.30341C20.5579 5.17857 21.4413 7.51091 21.3039 9.43419C21.1698 11.3025 19.8085 13.3495 19.7948 13.3684C19.7832 13.3856 19.7682 13.4003 19.7508 13.4115C19.7334 13.4227 19.7138 13.4303 19.6934 13.4337L15.9843 13.7122ZM19.2895 19.9375H16.7732L16.3796 17.7031H19.6848L19.2895 19.9375ZM19.5937 17.0156H16.4656L16.7234 16.3281H19.341L19.5937 17.0156ZM18.7137 15.6406H17.3387V14.2983L18.7137 14.1917V15.6406Z" fill="#22A5E6"/>
<path d="M18.7068 8.69859C17.9506 8.42188 17.0706 8.92203 16.7457 9.81063C16.4209 10.6992 16.7715 11.6514 17.5278 11.9264C18.3717 12.2341 19.2087 11.5827 19.4906 10.8144C19.8154 9.92406 19.4631 8.97359 18.7068 8.69859ZM18.8443 10.5772C18.6484 11.1117 18.1568 11.428 17.7632 11.2819C17.3696 11.1358 17.196 10.5806 17.3903 10.0478C17.5415 9.63359 17.9867 9.16609 18.4714 9.34313C18.8718 9.48922 19.0385 10.0444 18.8443 10.5772Z" fill="#22A5E6"/>
<path d="M5.55824 14.8397C5.09984 14.8392 4.65222 14.7006 4.27385 14.4418C3.89547 14.183 3.60394 13.8161 3.4373 13.3891C2.8713 13.4443 2.30129 13.3367 1.79434 13.079C1.28739 12.8213 0.864595 12.4242 0.575702 11.9343C0.286809 11.4445 0.143837 10.8823 0.163608 10.3139C0.183379 9.74557 0.365071 9.19469 0.687305 8.72609C0.3673 8.27787 0.151226 7.76396 0.0547996 7.22173C-0.0416264 6.67951 -0.0159795 6.12261 0.129875 5.59154C0.275729 5.06047 0.538123 4.56859 0.897969 4.15168C1.25782 3.73477 1.70607 3.40331 2.21012 3.18141C2.17355 2.61385 2.29966 2.04765 2.57365 1.54927C2.84765 1.05089 3.25814 0.641028 3.75694 0.367806C4.25575 0.0945845 4.82215 -0.0306551 5.38964 0.00679263C5.95714 0.0442404 6.50217 0.242821 6.96074 0.579218C7.33631 0.285066 7.79505 0.116786 8.27174 0.0982985C8.74844 0.0798113 9.21883 0.212058 9.61605 0.476239C10.0133 0.74042 10.3171 1.12309 10.4844 1.56986C10.6516 2.01662 10.6738 2.50475 10.5478 2.96484C10.5478 2.98547 10.5357 3.00437 10.5289 3.02328C10.5172 3.06816 10.4966 3.11021 10.4683 3.14692C10.4399 3.18362 10.4045 3.21421 10.364 3.23685C10.3235 3.25949 10.2789 3.27371 10.2328 3.27866C10.1867 3.2836 10.1401 3.27917 10.0957 3.26562C10.0099 3.23899 9.93799 3.17983 9.89526 3.10081C9.85254 3.02179 9.84245 2.92918 9.86715 2.84281L9.87918 2.805C9.97972 2.46482 9.96283 2.1007 9.83122 1.7713C9.69962 1.44189 9.46096 1.16637 9.1537 0.989116C8.84643 0.811864 8.48845 0.743198 8.13741 0.79418C7.78637 0.845161 7.4627 1.01282 7.21855 1.27016C7.15664 1.33498 7.07186 1.37305 6.98228 1.37626C6.89271 1.37947 6.80542 1.34756 6.73902 1.28734C6.47329 1.04287 6.15258 0.866011 5.80402 0.771718C5.43306 0.669449 5.04237 0.661901 4.66773 0.749765C4.29309 0.83763 3.94649 1.0181 3.65968 1.27464C3.37287 1.53118 3.15502 1.85558 3.02608 2.21814C2.89715 2.5807 2.86125 2.96982 2.92168 3.34984C2.9344 3.42904 2.91903 3.51019 2.87822 3.57924C2.83742 3.6483 2.77375 3.70091 2.69824 3.72797C2.23983 3.89053 1.82746 4.16142 1.49622 4.51758C1.16498 4.87375 0.924673 5.30465 0.79574 5.77364C0.666806 6.24263 0.653062 6.73582 0.755677 7.21126C0.858291 7.6867 1.07423 8.13031 1.38512 8.50437C1.43657 8.56614 1.46474 8.64399 1.46474 8.72437C1.46474 8.80476 1.43657 8.88261 1.38512 8.94438C1.17421 9.19461 1.02052 9.48791 0.934805 9.80375C0.773495 10.3922 0.852305 11.0207 1.15393 11.5511C1.45555 12.0815 1.95534 12.4706 2.54355 12.6328C2.8915 12.7292 3.25747 12.741 3.6109 12.6672C3.69877 12.6492 3.7902 12.6663 3.86567 12.7148C3.94113 12.7632 3.99465 12.8393 4.0148 12.9267C4.09448 13.2692 4.28602 13.5753 4.55917 13.7968C4.83231 14.0182 5.17146 14.1423 5.52301 14.1494C5.87456 14.1565 6.21844 14.0462 6.5003 13.836C6.78216 13.6257 6.98591 13.3276 7.07934 12.9886L7.08965 12.937C7.11085 12.8481 7.16648 12.7713 7.24433 12.7234C7.32217 12.6756 7.41584 12.6606 7.50473 12.6818C7.59362 12.703 7.67044 12.7586 7.71831 12.8365C7.76617 12.9143 7.78116 13.008 7.75996 13.0969C7.75996 13.1313 7.74793 13.1502 7.74277 13.1708C7.61045 13.6491 7.32538 14.0711 6.931 14.3724C6.53661 14.6737 6.05454 14.8378 5.55824 14.8397Z" fill="#22A5E6"/>
<path d="M12.8545 8.30329C12.4081 8.31283 11.9641 8.23639 11.5466 8.07813C11.2023 7.94437 10.8347 7.88068 10.4655 7.89079C10.0959 7.89082 9.72909 7.95419 9.38094 8.07813C8.96238 8.22555 8.52189 8.3011 8.07812 8.30157C7.63018 8.31142 7.18448 8.23558 6.765 8.07813C6.42019 7.94387 6.0521 7.8796 5.68219 7.88907C5.23875 7.88907 5.23875 7.20157 5.68219 7.20157C6.12869 7.19258 6.57276 7.2696 6.99016 7.42844C7.33705 7.56136 7.70678 7.62445 8.07812 7.61407C8.44761 7.6132 8.81429 7.54985 9.16266 7.42672C9.57939 7.26564 10.024 7.1891 10.4706 7.20157C10.9164 7.19284 11.3597 7.26926 11.7769 7.42672C12.1217 7.56098 12.4898 7.62525 12.8597 7.61579C13.298 7.61579 13.298 8.30329 12.8545 8.30329Z" fill="#22A5E6"/>
<path d="M14.422 5.89016C13.9762 5.90014 13.5325 5.82609 13.1141 5.67188C12.77 5.53424 12.4018 5.46703 12.0313 5.47423C11.6618 5.47487 11.295 5.53821 10.9467 5.66157C10.5266 5.81015 10.0844 5.88629 9.63877 5.88673C9.19245 5.89521 8.74859 5.8188 8.3308 5.66157C7.98598 5.52731 7.61789 5.46304 7.24798 5.47251C6.80455 5.47251 6.80455 4.78501 7.24798 4.78501C7.69449 4.77602 8.13856 4.85304 8.55595 5.01188C8.90115 5.14459 9.26905 5.20824 9.63877 5.19923C10.0083 5.19919 10.3751 5.13582 10.7233 5.01188C11.1434 4.8633 11.5857 4.78717 12.0313 4.78673C12.4772 4.77753 12.9208 4.85456 13.3375 5.0136C13.6826 5.14702 14.0505 5.21127 14.4203 5.20266C14.8655 5.20266 14.8655 5.89016 14.422 5.89016Z" fill="#22A5E6"/>
<path d="M11.2784 10.6838C10.8313 10.6934 10.3865 10.6164 9.96869 10.4569C9.62349 10.3242 9.2556 10.2605 8.88588 10.2696C8.51633 10.2697 8.14954 10.3331 7.80135 10.4569C7.38125 10.6055 6.93897 10.6816 6.49338 10.6821C6.04687 10.691 5.60281 10.614 5.18541 10.4552C4.84041 10.3216 4.47245 10.2573 4.1026 10.2661C3.65916 10.2661 3.65916 9.57862 4.1026 9.57862C4.54899 9.57118 4.99276 9.64816 5.41057 9.80549C5.75538 9.93975 6.12347 10.004 6.49338 9.99455C6.86288 9.99391 7.2296 9.93057 7.57791 9.80721C7.998 9.65863 8.44028 9.58249 8.88588 9.58205C9.33219 9.57357 9.77606 9.64998 10.1938 9.80721C10.538 9.94169 10.9056 10.006 11.2749 9.99627C11.7218 9.99627 11.7218 10.6838 11.2784 10.6838Z" fill="#22A5E6"/>
</g>
<defs>
<clipPath id="clip0_326_752">
<rect width="22" height="22" fill="white"/>
</clipPath>
</defs>
</svg>
