<svg width="21" height="22" viewBox="0 0 21 22" fill="none" xmlns="http://www.w3.org/2000/svg">
<path d="M16.8663 12.9442C16.8557 12.9434 16.845 12.943 16.8344 12.943L15.8831 12.943C16.0178 12.7912 16.7044 12.0714 16.7249 12.0427C17.5829 11.1031 18.4702 9.88728 18.4702 7.80725C18.4702 6.29986 17.9411 4.87076 16.9804 3.78327C16.9237 3.71903 16.8599 3.65174 16.7909 3.58325C15.246 2.04836 12.903 1.70818 10.9607 2.73672C10.5104 2.9752 9.6901 2.9752 9.23979 2.73672C7.29738 1.70818 4.95443 2.0484 3.40957 3.5832C3.34061 3.65174 3.27684 3.71903 3.22012 3.78327C2.25934 4.87081 1.73022 6.29986 1.73022 7.80725C1.73022 10.2165 2.92067 11.4663 3.8772 12.4705C4.03343 12.6345 4.1815 12.79 4.31582 12.9413L3.39144 12.9412H3.39131C3.38186 12.9412 3.3724 12.9415 3.36299 12.9422C1.47722 13.0674 0 14.6662 0 16.5821V21.5704C0 21.8077 0.192371 22 0.429688 22H19.7708C20.0081 22 20.2005 21.8077 20.2005 21.5704V16.5821C20.2005 15.6561 19.8574 14.7732 19.2345 14.096C18.6133 13.4207 17.7723 13.0117 16.8663 12.9442ZM11.3628 3.49615C12.9708 2.64472 14.9087 2.92467 16.1853 4.19293C16.241 4.24836 16.2918 4.30194 16.3363 4.35222C17.1582 5.28258 17.6108 6.50959 17.6108 7.80725C17.6108 9.51642 16.9161 10.5406 16.1691 11.3757C15.0821 11.4467 14.0613 11.5039 13.5113 10.9536C13.0769 10.519 13.1877 10.1829 13.5895 9.40182C13.944 8.71243 14.4297 7.76828 13.5113 6.84943C12.6602 5.99792 11.9355 6.11046 11.3532 6.2009C10.8447 6.27984 10.4774 6.33694 9.93481 5.79403C9.48368 5.34269 9.56845 4.715 9.80981 3.76445C10.3557 3.81309 10.9331 3.72367 11.3628 3.49615ZM2.58955 7.80725C2.58955 6.50959 3.04219 5.28258 3.86414 4.35222C3.90857 4.30194 3.95936 4.24836 4.01517 4.19289C4.79935 3.41382 5.83318 3.00768 6.88673 3.00768C7.54819 3.00768 8.21743 3.16778 8.8376 3.49615C8.88164 3.51948 8.92719 3.54131 8.97415 3.56172C8.72403 4.53677 8.52509 5.59926 9.32701 6.40157C10.1781 7.25312 10.9028 7.14059 11.4851 7.0501C11.9936 6.97112 12.3609 6.9141 12.9035 7.45697C13.3378 7.89155 13.227 8.2277 12.8253 9.00874C12.4707 9.69813 11.985 10.6423 12.9035 11.5611C13.4869 12.1448 14.294 12.2791 15.1539 12.2791C15.2111 12.2791 15.2685 12.2785 15.3261 12.2774C14.7814 12.8768 14.3385 13.4928 14.3385 14.3232V15.1119C14.3385 16.9605 13.3581 18.4265 11.8507 18.9147V14.2714C11.8507 13.794 11.6645 13.3467 11.3266 13.0122C10.9926 12.6815 10.5522 12.5029 10.0826 12.5068C9.12712 12.5165 8.34977 13.3081 8.34977 14.2714V18.9147C6.8423 18.4265 5.86188 16.9605 5.86188 15.1119V14.3232C5.86188 13.3081 5.20008 12.6133 4.49943 11.8778C3.60422 10.938 2.58955 9.87276 2.58955 7.80725ZM19.3411 21.1407H0.859332V16.5821C0.859332 15.1218 1.97682 13.9028 3.40613 13.8006L4.89878 13.8007C4.96547 13.9676 5.00255 14.1398 5.00255 14.3232V15.1119C5.00255 16.2959 5.34334 17.3754 5.98808 18.2337C6.65891 19.1268 7.5995 19.6976 8.70809 19.8845C8.83279 19.9055 8.9604 19.8706 9.05695 19.7889C9.1535 19.7072 9.20919 19.5872 9.20919 19.4608V14.2714C9.20919 13.7772 9.60493 13.3711 10.0914 13.3662C10.3285 13.3622 10.5523 13.4549 10.722 13.623C10.8957 13.7949 10.9913 14.0252 10.9913 14.2715V19.4608C10.9913 19.5873 11.047 19.7073 11.1435 19.789C11.2216 19.855 11.3201 19.8905 11.421 19.8905C11.4447 19.8905 11.4686 19.8886 11.4924 19.8846C12.601 19.6976 13.5416 19.1269 14.2124 18.2338C14.8571 17.3755 15.198 16.296 15.198 15.112V14.3232C15.198 14.1405 15.2348 13.9688 15.3011 13.8024L16.8179 13.8025C18.2341 13.9161 19.3411 15.1341 19.3411 16.5822L19.3411 21.1407Z" fill="#22A5E6"/>
<path d="M18.7868 2.50237C18.8965 2.50237 19.0062 2.46061 19.09 2.37708L19.5268 1.94198C19.6949 1.77448 19.6954 1.50245 19.5279 1.33431C19.3604 1.16617 19.0884 1.1657 18.9203 1.33315L18.4835 1.7683C18.3154 1.93579 18.3148 2.20782 18.4823 2.37596C18.5663 2.46022 18.6766 2.50237 18.7868 2.50237Z" fill="#22A5E6"/>
<path d="M16.2961 1.47469C16.5335 1.47469 16.7258 1.28232 16.7258 1.045V0.429688C16.7258 0.192371 16.5335 0 16.2961 0C16.0588 0 15.8665 0.192371 15.8665 0.429688V1.045C15.8665 1.28232 16.0588 1.47469 16.2961 1.47469Z" fill="#22A5E6"/>
<path d="M20.436 4.12427H19.8184C19.581 4.12427 19.3887 4.31664 19.3887 4.55396C19.3887 4.79127 19.581 4.98364 19.8184 4.98364H20.436C20.6734 4.98364 20.8657 4.79127 20.8657 4.55396C20.8657 4.31664 20.6734 4.12427 20.436 4.12427Z" fill="#22A5E6"/>
</svg>
