<svg width="35" height="35" viewBox="0 0 35 35" fill="none" xmlns="http://www.w3.org/2000/svg">
<path d="M29.5656 7.12183H26.8843V5.43433C26.8843 4.19112 26.3905 2.99884 25.5114 2.11976C24.6323 1.24069 23.44 0.746826 22.1968 0.746826H12.8218C11.5786 0.746826 10.3863 1.24069 9.50726 2.11976C8.62819 2.99884 8.13433 4.19112 8.13433 5.43433V7.12183H5.43433C4.19112 7.12183 2.99884 7.61569 2.11976 8.49476C1.24069 9.37384 0.746826 10.5661 0.746826 11.8093V29.5656C0.746826 30.8088 1.24069 32.0011 2.11976 32.8801C2.99884 33.7592 4.19112 34.2531 5.43433 34.2531H29.5656C30.1811 34.2531 30.7907 34.1318 31.3594 33.8963C31.9281 33.6607 32.4449 33.3154 32.8801 32.8801C33.3154 32.4449 33.6607 31.9281 33.8963 31.3594C34.1318 30.7907 34.2531 30.1811 34.2531 29.5656V11.8093C34.2531 11.1938 34.1318 10.5842 33.8963 10.0155C33.6607 9.44678 33.3154 8.93004 32.8801 8.49476C32.4449 8.05949 31.9281 7.71421 31.3594 7.47864C30.7907 7.24307 30.1811 7.12183 29.5656 7.12183ZM10.0093 5.43433C10.0093 4.6884 10.3056 3.97303 10.8331 3.44559C11.3605 2.91814 12.0759 2.62183 12.8218 2.62183H22.1968C22.9427 2.62183 23.6581 2.91814 24.1856 3.44559C24.713 3.97303 25.0093 4.6884 25.0093 5.43433V7.12183H10.0093V5.43433ZM32.3781 29.5656C32.3781 30.3115 32.0818 31.0269 31.5543 31.5543C31.0269 32.0818 30.3115 32.3781 29.5656 32.3781H5.43433C4.6884 32.3781 3.97303 32.0818 3.44559 31.5543C2.91814 31.0269 2.62183 30.3115 2.62183 29.5656V11.8093C2.62183 11.0634 2.91814 10.348 3.44559 9.82059C3.97303 9.29314 4.6884 8.99683 5.43433 8.99683H29.5656C30.3115 8.99683 31.0269 9.29314 31.5543 9.82059C32.0818 10.348 32.3781 11.0634 32.3781 11.8093V29.5656Z" fill="white"/>
<path d="M22.1968 20.6406C22.1968 20.8893 22.098 21.1277 21.9222 21.3035C21.7464 21.4794 21.5079 21.5781 21.2593 21.5781H18.4468V24.3906C18.4468 24.6393 18.348 24.8777 18.1722 25.0535C17.9964 25.2294 17.7579 25.3281 17.5093 25.3281C17.2606 25.3281 17.0222 25.2294 16.8464 25.0535C16.6705 24.8777 16.5718 24.6393 16.5718 24.3906V21.5781H13.7593C13.5106 21.5781 13.2722 21.4794 13.0964 21.3035C12.9205 21.1277 12.8218 20.8893 12.8218 20.6406C12.8218 20.392 12.9205 20.1535 13.0964 19.9777C13.2722 19.8019 13.5106 19.7031 13.7593 19.7031H16.5718V16.8906C16.5718 16.642 16.6705 16.4035 16.8464 16.2277C17.0222 16.0519 17.2606 15.9531 17.5093 15.9531C17.7567 15.957 17.9929 16.057 18.1679 16.232C18.3429 16.407 18.4429 16.6432 18.4468 16.8906V19.7031H21.2593C21.5067 19.707 21.7429 19.807 21.9179 19.982C22.0929 20.157 22.1929 20.3932 22.1968 20.6406Z" fill="white"/>
</svg>
