<svg width="22" height="22" viewBox="0 0 22 22" fill="none" xmlns="http://www.w3.org/2000/svg">
<g clip-path="url(#clip0_326_723)">
<path d="M19.9649 12.748C19.7608 12.591 19.5509 12.4295 19.3547 12.2681V10.3638C19.682 9.23454 21.0746 5.54777 21.4137 4.36899C21.5004 4.06738 21.1628 3.80551 20.8924 3.96536C19.7527 4.63832 18.6007 4.96761 17.4569 4.94472C16.1491 4.91828 15.3837 4.43961 14.5736 3.93272C13.7832 3.43825 12.9658 2.92711 11.6627 2.84815C10.2281 2.76264 9.34488 3.25924 8.40651 3.78599C7.55774 4.26236 6.68022 4.75488 5.26814 4.85228C3.72264 4.95856 2.12995 4.54961 0.530869 3.63643C0.255869 3.4803 -0.0794532 3.75246 0.0170629 4.05283C0.415902 5.29583 0.818466 6.35112 1.2079 7.37146C1.53506 8.22875 1.87305 9.11478 2.21689 10.1298V12.2977C-0.109792 14.8951 -0.105179 15.6373 0.144627 16.3334L0.160418 16.3776C0.755482 19.7277 10.7055 19.131 11.5523 19.1037C14.9229 18.9953 21.1967 18.7934 21.9303 16.0008C22.3105 14.5523 21.0643 13.5937 19.9649 12.748ZM1.87074 7.11882C1.56185 6.30907 1.26592 5.53357 0.967853 4.66528C2.42837 5.35793 3.88729 5.65919 5.31693 5.56036C6.88816 5.45214 7.8794 4.89575 8.75372 4.40519C9.63514 3.91019 10.3949 3.48207 11.6196 3.55694C12.7425 3.62472 13.4489 4.06667 14.1969 4.5347C15.0534 5.07033 15.9387 5.62406 17.4425 5.65457C18.4582 5.67586 19.4777 5.44894 20.4852 4.98144C20.2281 5.78036 19.4251 7.90691 19.2848 8.29635C19.0847 7.64185 18.4754 7.16424 17.7563 7.16424H17.5028C17.0378 7.16424 16.6196 7.36507 16.3274 7.68319C16.0394 7.26377 15.5581 6.98735 15.012 6.98735H14.7587C14.3955 6.98735 14.0612 7.11048 13.7924 7.3154C13.5794 6.68307 12.9822 6.22622 12.2789 6.22622H12.0255C11.5229 6.22622 11.0742 6.46006 10.7809 6.82395C10.4882 6.46006 10.0407 6.22622 9.53827 6.22622H9.28492C8.5818 6.22622 7.98443 6.68325 7.77118 7.31522C7.50256 7.11048 7.1683 6.98735 6.80513 6.98735H6.55177C6.0078 6.98735 5.52718 7.26093 5.23834 7.67715C4.9463 7.36259 4.53043 7.16424 4.06826 7.16424H3.8149C3.1109 7.16424 2.513 7.62215 2.30027 8.25536C2.1555 7.86575 2.01214 7.48927 1.87074 7.11882ZM16.2593 11.7255C16.1285 11.7255 16.0155 11.797 15.9539 11.9022H13.5151C13.3844 11.9022 13.2714 11.9737 13.2098 12.0789H8.35418C8.29261 11.9737 8.17959 11.9022 8.04884 11.9022H5.61748C5.55592 11.797 5.4429 11.7255 5.31214 11.7255H2.92639V10.6592H5.31214C5.4429 10.6592 5.55592 10.5877 5.61748 10.4825H8.04901C8.17977 10.4825 8.29279 10.411 8.35435 10.3058H13.21C13.2715 10.411 13.3845 10.4825 13.5153 10.4825H15.9543C16.0159 10.5877 16.1289 10.6592 16.2596 10.6592H18.6454V11.7255H16.2593ZM18.645 12.435V13.6223C18.645 14.1123 18.2464 14.511 17.7563 14.511H17.5028C17.0126 14.511 16.6139 14.1123 16.6139 13.6223V12.435H18.645ZM15.9007 12.6119V13.7992C15.9007 14.2892 15.502 14.6879 15.0118 14.6879H14.7585C14.2683 14.6879 13.8696 14.2892 13.8696 13.7992V12.6119H15.9007ZM13.1677 14.5603C13.1677 15.0503 12.7691 15.449 12.2789 15.449H12.0255C11.5353 15.449 11.1366 15.0503 11.1366 14.5603V12.7886H13.1601L13.1677 14.5603ZM10.4271 12.7886V14.5603C10.4271 15.0503 10.0285 15.449 9.53827 15.449H9.28492C8.79471 15.449 8.39605 15.0503 8.39605 14.5603L8.4035 12.7886H10.4271ZM7.694 12.6119V13.7992C7.694 14.2892 7.29534 14.6879 6.80513 14.6879H6.55177C6.06156 14.6879 5.6629 14.2892 5.6629 13.7992L5.66663 12.6119H7.694ZM2.92639 12.435H4.9573V13.6223C4.9573 14.1123 4.55864 14.511 4.06843 14.511H3.81508C3.32487 14.511 2.92621 14.1123 2.92621 13.6223L2.92639 12.435ZM2.92639 9.94972V8.76243C2.92639 8.2724 3.32505 7.87374 3.81526 7.87374H4.06861C4.55882 7.87374 4.95748 8.2724 4.95748 8.76243V9.94972H2.92639ZM5.66308 8.58554C5.66308 8.09551 6.06174 7.69685 6.55195 7.69685H6.8053C7.29551 7.69685 7.69418 8.09551 7.69418 8.58554V9.77283H5.66698L5.66308 8.58554ZM8.39622 7.82441C8.39622 7.33438 8.79489 6.93572 9.2851 6.93572H9.53845C10.0287 6.93572 10.4273 7.33438 10.4273 7.82441V9.59612H8.40368L8.39622 7.82441ZM11.1368 9.59612V7.82441C11.1368 7.33438 11.5355 6.93572 12.0257 6.93572H12.279C12.7693 6.93572 13.1679 7.33438 13.1679 7.82441L13.1605 9.59612H11.1368ZM13.8698 9.77283V8.58554C13.8698 8.09551 14.2684 7.69685 14.7587 7.69685H15.012C15.5022 7.69685 15.9009 8.09551 15.9009 8.58554V9.77283H13.8698ZM18.645 9.94972H16.6141V8.76243C16.6141 8.2724 17.0128 7.87374 17.503 7.87374H17.7565C18.2465 7.87374 18.6452 8.2724 18.6452 8.76243V9.94972H18.645ZM18.8389 12.7604C18.8397 12.7609 18.8402 12.7615 18.8409 12.762H18.8389V12.7604ZM21.2437 15.8205C20.6447 18.1011 14.2571 18.3067 11.5206 18.3947C8.34335 18.4974 1.73129 18.7098 0.829643 16.1425L0.812611 16.0936C0.703853 15.7905 0.545773 15.347 2.21689 13.3769V13.6223C2.21689 14.5035 2.93401 15.2207 3.81526 15.2207H4.06861C4.53079 15.2207 4.94648 15.0223 5.23869 14.7078C5.52753 15.124 6.00816 15.3976 6.55213 15.3976H6.80548C7.16866 15.3976 7.50274 15.2744 7.77153 15.0697C7.98479 15.7018 8.58216 16.1587 9.28527 16.1587H9.53863C10.0411 16.1587 10.4885 15.9248 10.7813 15.561C11.0745 15.9248 11.5231 16.1587 12.0259 16.1587H12.2792C12.9825 16.1587 13.5797 15.7017 13.7928 15.0695C14.0616 15.2744 14.3958 15.3976 14.759 15.3976H15.0124C15.5585 15.3976 16.0398 15.1211 16.3278 14.7017C16.6201 15.0198 17.0381 15.2207 17.5032 15.2207H17.7567C18.6381 15.2207 19.3549 14.5035 19.3549 13.6223V13.1727C19.4141 13.2185 19.4736 13.2652 19.5323 13.3104C20.5464 14.0907 21.5045 14.8275 21.2437 15.8205Z" fill="#22A5E6"/>
</g>
<defs>
<clipPath id="clip0_326_723">
<rect width="22" height="22" fill="white"/>
</clipPath>
</defs>
</svg>
